<svg xmlns="http://www.w3.org/2000/svg" xmlns:xlink="http://www.w3.org/1999/xlink" viewBox="0 0 646.08 302.03"><defs><style>.cls-1{fill:none;}.cls-2{fill:#131721;}.cls-3{fill:#00678d;}.cls-4{fill:#047e9c;}.cls-20,.cls-22,.cls-5{fill:#414141;}.cls-5{opacity:0.15;}.cls-15,.cls-21,.cls-22,.cls-24,.cls-5{isolation:isolate;}.cls-6{fill:#29222c;}.cls-7{fill:#3f3643;}.cls-8{fill:#d0d1d2;}.cls-9{fill:#a5a8ab;}.cls-10{fill:#caccce;}.cls-11{fill:#323d48;}.cls-12{fill:#a41e23;}.cls-13{fill:#322a36;}.cls-14{clip-path:url(#clip-path);}.cls-15,.cls-21{fill:#fff;}.cls-15{opacity:0.25;}.cls-16{clip-path:url(#clip-path-2);}.cls-17{fill:#eae6c6;}.cls-18{fill:#d8d6af;}.cls-19{fill:#f69220;}.cls-21{opacity:0.3;}.cls-22{opacity:0.21;}.cls-23{fill:#182127;}.cls-24,.cls-26{fill:#8f9495;}.cls-24,.cls-27{opacity:0.4;}.cls-25{opacity:0.2;}</style><clipPath id="clip-path"><path class="cls-1" d="M205.07,97.57c58.21-43.42,93.14-54,93.14-54,24.23-1.06,100.55,0,100.55,0l-9.53,44.81Z"/></clipPath><clipPath id="clip-path-2"><path class="cls-1" d="M537.4,53.34l32.93,30.58L403,88.28l3.53-44.34C452.25,44.67,537.4,53.34,537.4,53.34Z"/></clipPath></defs><title>car-opposite</title><g id="Layer_2" data-name="Layer 2"><g id="Layer_1-2" data-name="Layer 1"><g id="Layer_2-2" data-name="Layer 2"><g id="Layer_1-2-2" data-name="Layer 1-2"><polygon class="cls-2" points="624.39 198.65 572.39 153.33 122.38 153.33 57.24 177.09 39.22 225.46 49.53 238.66 600.63 239.94 624.39 198.65"/><path class="cls-3" d="M4.88,184.55a29.89,29.89,0,0,0,2.2,12.34L22,233.59l27.56,5.07a65.7,65.7,0,1,1,130.4,1.28H470.41a66.43,66.43,0,0,1-.57-8.69,65.7,65.7,0,1,1,130.82,8.69h4.91l16.51-3.48,3.82-1.82c11.62-9.79,17.91-34.33,17.91-34.33l2.27-15.67-4-3.41,1.73-10.67V142.39l-5.91-4.66-1.13-21.92c-2.61-11.13-17.83-18.51-17.83-18.51L566.47,48.7a11.68,11.68,0,0,0-5.82-2.92C478.53,30.55,329.53,31.86,329.53,31.86c-33.62,0-51.79,8.18-51.79,8.18l-107.1,66C96,110.47,39.8,126.14,39.8,126.14c-7.51,3.29-13.51,11.47-13.51,11.47l-11.58,20-6.36,8.52C5.82,171,5.08,178.87,4.88,184.55Z"/><path class="cls-4" d="M108.61,128.71,585.36,116h51.41v-.19c-2.61-11.13-17.83-18.51-17.83-18.51L566.48,48.71a11.68,11.68,0,0,0-5.82-2.92C478.54,30.56,329.54,31.87,329.54,31.87c-33.62,0-51.79,8.18-51.79,8.18l-107.1,66C96,110.48,39.81,126.15,39.81,126.15c-5.82,2.56-10.75,8.06-12.66,10.39Z"/><ellipse class="cls-5" cx="319.79" cy="289.35" rx="319.79" ry="12.68"/><circle class="cls-6" cx="114.81" cy="231.25" r="58.47"/><path class="cls-7" d="M56.34,231.25h0a58.47,58.47,0,1,0,58.47-58.47A58.47,58.47,0,0,0,56.34,231.25Zm8.56,21.08a54,54,0,1,1,11.61,17.22A54,54,0,0,1,64.9,252.33Z"/><path class="cls-7" d="M69.19,231.25h0a45.62,45.62,0,1,0,45.62-45.62A45.62,45.62,0,0,0,69.19,231.25Zm9-15.46a39.58,39.58,0,1,1-3.12,15.46A39.58,39.58,0,0,1,78.2,215.79Z"/><g id="_Group_" data-name=" Group "><g id="_Group_2" data-name=" Group 2"><g id="_Group_3" data-name=" Group 3"><path class="cls-8" d="M114.68,191.55h.1a39.7,39.7,0,1,1-.1,0Z"/></g></g></g><g id="_Group_4" data-name=" Group 4"><g id="_Group_5" data-name=" Group 5"><g id="_Group_6" data-name=" Group 6"><path class="cls-6" d="M114.73,198.65h.08a32.6,32.6,0,1,1-.08,0Z"/></g></g></g><path class="cls-9" d="M93.82,234.69a21.05,21.05,0,0,0,1.1,4.08L84.83,244.6l3.44,5.93,10.09-5.83a21.45,21.45,0,0,0,3,3l-5.81,10.1,5.94,3.42,5.81-10.1a21.1,21.1,0,0,0,4.09,1.09v11.67h6.85V252.21a20.92,20.92,0,0,0,4.08-1.09l5.86,10.1,5.92-3.42-5.86-10.1a21.33,21.33,0,0,0,3-3l10.12,5.83,3.41-5.93-10.12-5.83a20.89,20.89,0,0,0,1.08-4.08H147.4v-6.85H135.73a21.12,21.12,0,0,0-1.1-4.08l10.09-5.83L141.28,212l-10.07,5.82a21.59,21.59,0,0,0-3-3l5.81-10.1-5.94-3.42-5.79,10.11a21,21,0,0,0-4.08-1.09V198.65h-6.85v11.67a20.87,20.87,0,0,0-4.08,1.09l-5.86-10.1-5.92,3.42,5.86,10.1a21.38,21.38,0,0,0-3,3L88.24,212l-3.41,5.91L95,223.74a21.09,21.09,0,0,0-1.08,4.08H82.22v6.85Z"/><g id="_Group_7" data-name=" Group 7"><g id="_Group_8" data-name=" Group 8"><g id="_Group_9" data-name=" Group 9"><path class="cls-6" d="M114.79,221.25h0a10,10,0,1,1-10,10A10,10,0,0,1,114.84,221.25Z"/></g></g></g><path class="cls-8" d="M99,231.26h0a15.81,15.81,0,1,1,15.81,15.81A15.81,15.81,0,0,1,99,231.26Zm15.81-14.12a14.13,14.13,0,0,0-14.11,14.12h0a14.11,14.11,0,1,0,14.11-14.11Z"/><g id="_Group_10" data-name=" Group 10"><g id="_Group_11" data-name=" Group 11"><g id="_Group_12" data-name=" Group 12"><path class="cls-10" d="M114.8,225.46h0a5.79,5.79,0,1,1-5.79,5.79A5.79,5.79,0,0,1,114.81,225.46Z"/></g></g></g><path class="cls-8" d="M94.08,231.25h0a20.74,20.74,0,1,0,20.73-20.75A20.74,20.74,0,0,0,94.08,231.26Zm4.09-7a18,18,0,1,1-1.42,7A18,18,0,0,1,98.17,224.25Z"/><path class="cls-8" d="M77.92,231.25a36.89,36.89,0,1,0,36.89-36.89A36.89,36.89,0,0,0,77.92,231.25Zm7.29-12.5a32,32,0,1,1-2.52,12.5A32,32,0,0,1,85.21,218.75Z"/><circle class="cls-6" cx="535.5" cy="231.25" r="58.47"/><path class="cls-7" d="M477.08,231.25v0a58.47,58.47,0,1,0,58.42-58.52A58.47,58.47,0,0,0,477.08,231.3Zm8.51,21.08a54,54,0,1,1,11.61,17.22A54,54,0,0,1,485.59,252.33Z"/><path class="cls-7" d="M489.88,231.25h0a45.62,45.62,0,1,0,45.62-45.62A45.62,45.62,0,0,0,489.88,231.25Zm5.91,0a39.59,39.59,0,1,1,39.64,39.55,39.49,39.49,0,0,1-39.64-39.55Z"/><g id="_Group_13" data-name=" Group 13"><g id="_Group_14" data-name=" Group 14"><g id="_Group_15" data-name=" Group 15"><path class="cls-8" d="M535.4,191.55h.1a39.7,39.7,0,1,1-.1,0Z"/></g></g></g><g id="_Group_16" data-name=" Group 16"><g id="_Group_17" data-name=" Group 17"><g id="_Group_18" data-name=" Group 18"><path class="cls-6" d="M535.42,198.65h.08a32.6,32.6,0,1,1-.08,0Z"/></g></g></g><path class="cls-9" d="M514.54,234.66a20.85,20.85,0,0,0,1.1,4.08l-10.09,5.83L509,250.5l10.09-5.83a21.5,21.5,0,0,0,3,3l-5.8,10.11,5.94,3.42L528,251.1a21.06,21.06,0,0,0,4.08,1.09v11.67H539V252.19A21,21,0,0,0,543,251.1l5.86,10.1,5.92-3.42L549,247.68a21.48,21.48,0,0,0,3-3l10.12,5.83,3.4-5.93-10.11-5.81a21,21,0,0,0,1.08-4.08h11.63v-6.85H556.43a21.13,21.13,0,0,0-1.1-4.08l10.09-5.83L562,212l-10.1,5.82a21.43,21.43,0,0,0-3-3l5.81-10.1-5.93-3.42L543,211.4a21,21,0,0,0-4.08-1.09V198.64H532v11.67a21,21,0,0,0-4.08,1.09l-5.86-10.1-5.86,3.41,5.86,10.1a21.27,21.27,0,0,0-3,3L508.93,212l-3.41,5.91,10.12,5.83a21.1,21.1,0,0,0-1.08,4.08H502.91v6.85Z"/><g id="_Group_19" data-name=" Group 19"><g id="_Group_20" data-name=" Group 20"><g id="_Group_21" data-name=" Group 21"><path class="cls-6" d="M535.48,221.25h.06a10,10,0,1,1-.06,0Z"/></g></g></g><path class="cls-8" d="M519.69,231.26h0a15.81,15.81,0,1,1,15.81,15.81A15.81,15.81,0,0,1,519.69,231.26Zm15.81-14.12a14.12,14.12,0,1,0,14.11,14.12,14.12,14.12,0,0,0-14.11-14.12Z"/><g id="_Group_22" data-name=" Group 22"><g id="_Group_23" data-name=" Group 23"><g id="_Group_24" data-name=" Group 24"><path class="cls-10" d="M535.49,225.46h0a5.79,5.79,0,1,1-5.79,5.79A5.79,5.79,0,0,1,535.51,225.46Z"/></g></g></g><path class="cls-8" d="M514.76,231.25a20.74,20.74,0,1,0,20.74-20.74A20.74,20.74,0,0,0,514.76,231.25Zm4.11-7a18,18,0,1,1-1.42,7A18,18,0,0,1,518.87,224.25Z"/><path class="cls-8" d="M498.61,231.25h0a36.89,36.89,0,1,0,36.89-36.89A36.89,36.89,0,0,0,498.61,231.25Zm7.29-12.5a32,32,0,1,1-2.52,12.5A32,32,0,0,1,505.9,218.75Z"/><path class="cls-4" d="M190.39,225.46c.13-1.85.2-3.71.2-5.59a75.79,75.79,0,0,0-151.58,0q0,2.82.21,5.59a75.79,75.79,0,0,1,151.17,0Z"/><path class="cls-4" d="M611.08,225.46c.14-1.85.21-3.71.21-5.59a75.79,75.79,0,0,0-151.58,0q0,2.82.2,5.59a75.79,75.79,0,0,1,151.17,0Z"/><path class="cls-11" d="M179.75,221.28a66.19,66.19,0,0,1,.18,18.66H470.39a66.09,66.09,0,0,1,.18-18.66Z"/><path class="cls-11" d="M600.48,221.28a66.24,66.24,0,0,1,.18,18.66h4.91l16.51-3.48,3.83-1.81c3.86-3.29,7.2-8.24,9.86-13.37Z"/><path class="cls-11" d="M17,221.28l5,12.31,27.56,5.07a66.1,66.1,0,0,1,.33-17.38Z"/><path class="cls-11" d="M277.75,40l-107.1,66L610.39,89.17l-43.74-40.3a12.53,12.53,0,0,0-6.21-3.11c-82.15-15.18-230.9-13.88-230.9-13.88C295.92,31.88,277.75,40,277.75,40Z"/><path class="cls-12" d="M585.35,116s-1.33,1.8,1,4.27c0,0,11.38,16.22,29.21,17.64,0,0,12.91.7,23.72.83l-1.33-1L636.78,116Z"/><path class="cls-11" d="M131,129.71a1.16,1.16,0,0,0,.62,1.52,53.06,53.06,0,0,0,23.59,4.62l44.3-3a36.32,36.32,0,0,0,10.28-5.43,1.54,1.54,0,0,0-1-2.77L132,129A1.16,1.16,0,0,0,131,129.71Z"/><path class="cls-13" d="M205.07,97.57c58.21-43.42,93.14-54,93.14-54,24.23-1.06,100.55,0,100.55,0l-9.53,44.81Z"/><g class="cls-14"><polygon class="cls-15" points="224.22 0 289.81 140.65 348.6 140.65 283.02 0 224.22 0"/><polygon class="cls-15" points="353.26 0 418.84 140.65 439.79 140.65 374.2 0 353.26 0"/><polygon class="cls-15" points="160.64 0 226.23 140.65 260.84 140.65 195.25 0 160.64 0"/><polygon class="cls-15" points="317.42 0 383.01 140.65 396.53 140.65 330.94 0 317.42 0"/><polygon class="cls-15" points="303.73 0 369.31 140.65 378.02 140.65 312.43 0 303.73 0"/></g><path class="cls-13" d="M537.4,53.33l32.93,30.58L403,88.27l3.53-44.34C452.25,44.65,537.4,53.33,537.4,53.33Z"/><g class="cls-16"><polygon class="cls-15" points="399.68 17.95 465.27 158.6 524.06 158.6 458.47 17.95 399.68 17.95"/><polygon class="cls-15" points="528.71 17.95 594.3 158.6 615.25 158.6 549.66 17.95 528.71 17.95"/><polygon class="cls-15" points="336.09 17.95 401.68 158.6 436.29 158.6 370.71 17.95 336.09 17.95"/><polygon class="cls-15" points="492.87 17.95 558.46 158.6 571.98 158.6 506.39 17.95 492.87 17.95"/><polygon class="cls-15" points="479.18 17.95 544.77 158.6 553.47 158.6 487.89 17.95 479.18 17.95"/></g><path class="cls-2" d="M198.42,99.91l6.71-.33,184.16-9.17,1.57-.08.33-1.54L400.72,44l.52-2.44h-2.49c-.34,0-34.28-.47-63.75-.47h0c-17.33,0-29.75.16-36.92.47h-.23l-.25.07c-.36.11-9.06,2.79-25.06,10.85-14.7,7.45-38.51,21-68.7,43.45Zm6.66-2.34c58.21-43.42,93.14-54,93.14-54,8.07-.35,21.93-.47,36.83-.47,29.79,0,63.71.47,63.71.47l-9.53,44.81Z"/><path class="cls-2" d="M401,88.09l-.18,2.27,2.27-.06L570.39,86l5-.13-3.67-3.41-32.94-30.6-.5-.47-.68-.07c-.85-.09-85.76-8.7-131.06-9.42h-1.92l-.15,1.91Zm2,.17,3.53-44.34c45.74.73,130.89,9.41,130.89,9.41l32.93,30.58Z"/><path class="cls-11" d="M558.61,61.42c21.2-12.58,25.66-14.5,25.66-14.5l-2-3a197.56,197.56,0,0,0-54.34-3Z"/><path class="cls-17" d="M14,158.57l48.5-7.79c3.56-3.42,12.45-6.7,12.45-6.7L93.27,140c11.33-5.61,15.33-11.22,15.33-11.22l-81.46,7.78c-.55.67-.85,1.08-.85,1.08l-11.58,20Z"/><ellipse class="cls-18" cx="30.43" cy="146.31" rx="7.35" ry="3.37" transform="translate(-117.88 127.99) rotate(-71.21)"/><ellipse class="cls-18" cx="39.73" cy="144.78" rx="6.82" ry="3.12" transform="translate(-110.14 135.78) rotate(-71.22)"/><ellipse class="cls-18" cx="48.58" cy="143.52" rx="6.3" ry="2.89" transform="translate(-102.94 143.31) rotate(-71.22)"/><ellipse class="cls-18" cx="57.24" cy="142.43" rx="5.95" ry="2.72" transform="translate(-96.04 150.75) rotate(-71.21)"/><path class="cls-19" d="M61.68,150.91l.81-.13c3.56-3.42,12.45-6.7,12.45-6.7L93.28,140c11.33-5.61,15.33-11.22,15.33-11.22l-37.46,3.58Z"/><path class="cls-20" d="M14,158.57l48.5-7.79c3.56-3.42,12.45-6.7,12.45-6.7L93.27,140c11.33-5.61,15.33-11.22,15.33-11.22l-81.46,7.78c-.55.67-.85,1.08-.85,1.08l-11.58,20Zm2.8-1.78,10.65-18.37.42-.53,77.31-7.39a51.89,51.89,0,0,1-12.34,8.23L74.65,142.8h-.18c-.36.13-8.72,3.24-12.6,6.7Z"/><path class="cls-21" d="M20.15,148.24l84.57-15.56a24.29,24.29,0,0,0,3.89-3.92l-81.46,7.78c-.55.67-.85,1.08-.85,1.08Z"/><path class="cls-22" d="M372,126.65l-31,.91a2.42,2.42,0,0,1-2.4-2.42l-.27-9a2.41,2.41,0,0,1,2.25-2.56l31-.91a2.42,2.42,0,0,1,2.4,2.43l.27,9A2.41,2.41,0,0,1,372,126.65Z"/><path class="cls-23" d="M374.05,118.44l-.1-3.34a2.42,2.42,0,0,0-2.4-2.43l-31,.91a2.41,2.41,0,0,0-2.25,2.56l.1,3.34a2.42,2.42,0,0,0,2.4,2.43l31-.91A2.41,2.41,0,0,0,374.05,118.44Z"/><path class="cls-17" d="M621.83,121.56a30.42,30.42,0,0,0,9.65,17c2.58.08,5.23.17,7.77.17l-1.33-1-.84-16.16Z"/><path class="cls-20" d="M586.3,120.26s11.38,16.22,29.21,17.64c0,0,12.91.7,23.72.83l-1.33-1L636.78,116H585.36S584,117.85,586.3,120.26Zm1-.87a3,3,0,0,1-1-2.07h49.24l1,20c-9.82-.19-20.41-.78-20.91-.78-17-1.36-28.08-16.9-28.19-17.06l0-.07-.06-.07Z"/><polygon class="cls-4" points="463.57 202.49 196.38 202.49 196.38 195.45 470.57 185.63 463.57 202.49"/><path class="cls-24" d="M193.65,144.07v72.67H355l.38-.3c.33-.27,8.29-6.81,17.23-24.81,8.19-16.46,18.8-46.15,22.8-94l-2.72-.23c-4,47.25-14.4,76.54-22.4,92.79C362.64,205.68,355.63,212.58,354,214H196.36V144.1l3.44-39-2.72-.24Z"/><path class="cls-11" d="M39.56,175.33a3.86,3.86,0,0,0-4-3.68l-19.45.9c-2.56.74-3.35,4.32-3.35,4.32-2.24,21.08,4.61,30.5,7.61,33.56a4,4,0,0,0,2.87,1.2H32A1.81,1.81,0,0,0,33.84,210c.84-11.76,3.9-26.15,5.62-33.57A3.86,3.86,0,0,0,39.56,175.33Z"/><path class="cls-11" d="M238.93,95.89l1.93-23c-10.65,6.72-22.62,14.85-35.78,24.66Z"/><g class="cls-25"><path class="cls-26" d="M100.64,167.09H7.93c-2.17,4.9-2.86,12.14-3,17.46a29.89,29.89,0,0,0,2.2,12.34l14.86,36.7,27.56,5.07a65.69,65.69,0,0,1,51.14-71.57Z"/><path class="cls-26" d="M128.93,167.09a65.74,65.74,0,0,1,51,72.85H470.38a66.43,66.43,0,0,1-.57-8.69,65.72,65.72,0,0,1,51.52-64.16H128.93Z"/><path class="cls-26" d="M646.08,184.64l-4-3.41,1.73-10.68v-3.46H549.66a65.74,65.74,0,0,1,51,72.85h4.91l16.51-3.48,3.82-1.82c11.62-9.79,17.91-34.33,17.91-34.33Z"/></g><g class="cls-27"><path class="cls-26" d="M205.08,97.55l184.13-9.17,9.53-44.81S364.82,43.1,335,43.1c-14.89,0-28.75.12-36.83.47C298.2,43.57,263.28,54.16,205.08,97.55ZM387.9,86.82,210.34,95.67c27.87-20.41,49.91-32.87,63.73-39.87,14.47-7.31,23.06-10.19,24.41-10.62,7.15-.31,19.45-.46,36.55-.46h0c25.36,0,54,.34,61.72.44Z"/><path class="cls-26" d="M406.51,43.92,403,88.26l167.35-4.35L537.4,53.33S452.25,44.65,406.51,43.92Zm-1.76,42.65,3.26-41c43.57.85,121.43,8.59,128.69,9.32l29.62,27.5Z"/></g><path class="cls-3" d="M243.94,92.54c-4.7,2.36-15,2.95-15,2.95-2.83.17-4.08-3.83-4.08-3.83a54.43,54.43,0,0,1,6-17.77c3.4-4.71,13.58-5.89,13.58-5.89,4.64,0,4.86,2.5,4.86,2.5V86.31C249.3,89.46,244,92.5,243.94,92.54Z"/><path class="cls-4" d="M230.86,73.9a54.42,54.42,0,0,0-6,17.77s1.25,4,4.08,3.83c0,0,1.35-.08,3.29-.29,2.35-12.82,10.56-23.66,13.43-27.14a10.4,10.4,0,0,0-1.22-.07S234.25,69.13,230.86,73.9Z"/></g></g></g></g></svg>