<svg xmlns="http://www.w3.org/2000/svg" xmlns:xlink="http://www.w3.org/1999/xlink" viewBox="0 0 646.08 302.03"><defs><style>.cls-1{fill:none;}.cls-2{isolation:isolate;}.cls-3{fill:#131721;}.cls-4{fill:#00678d;}.cls-5{fill:#047e9c;}.cls-21,.cls-23,.cls-6{fill:#414141;}.cls-6{opacity:0.15;}.cls-23,.cls-25,.cls-26,.cls-28,.cls-6{mix-blend-mode:multiply;}.cls-7{fill:#29222c;}.cls-8{fill:#3f3643;}.cls-9{fill:#d0d1d2;}.cls-10{fill:#a5a8ab;}.cls-11{fill:#caccce;}.cls-12{fill:#323d48;}.cls-13{fill:#a41e23;}.cls-14{fill:#322a36;}.cls-15{clip-path:url(#clip-path);}.cls-16,.cls-22{fill:#fff;mix-blend-mode:overlay;}.cls-16{opacity:0.25;}.cls-17{clip-path:url(#clip-path-2);}.cls-18{fill:#eae6c6;}.cls-19{fill:#d8d6af;}.cls-20{fill:#f69220;}.cls-22{opacity:0.3;}.cls-23{opacity:0.21;}.cls-24{fill:#182127;}.cls-25,.cls-27{fill:#8f9495;}.cls-25,.cls-28{opacity:0.4;}.cls-26{opacity:0.2;}</style><clipPath id="clip-path"><path class="cls-1" d="M256.85,88.38l-9.53-44.81s76.32-1.06,100.55,0c0,0,34.93,10.58,93.14,54Z"/></clipPath><clipPath id="clip-path-2"><path class="cls-1" d="M239.57,43.94l3.53,44.34L75.75,83.92l32.93-30.58S193.83,44.67,239.57,43.94Z"/></clipPath></defs><title>car-svg</title><g class="cls-2"><g id="Layer_2" data-name="Layer 2"><g id="Layer_1-2" data-name="Layer 1"><polygon class="cls-3" points="45.45 239.94 596.55 238.66 606.86 225.46 588.84 177.09 523.7 153.33 73.69 153.33 21.69 198.65 45.45 239.94"/><path class="cls-4" d="M637.73,166.13l-6.36-8.52-11.58-20s-6-8.18-13.51-11.47c0,0-56.22-15.67-130.84-20.1l-107.1-66s-18.17-8.18-51.79-8.18c0,0-149-1.31-231.12,13.92a11.68,11.68,0,0,0-5.82,2.92L27.14,97.3s-15.22,7.38-17.83,18.51L8.18,137.73l-5.91,4.66v28.17L4,181.23l-4,3.41,2.27,15.67s6.29,24.54,17.91,34.33L24,236.46l16.51,3.48h4.91a65.7,65.7,0,1,1,130.82-8.69,66.43,66.43,0,0,1-.57,8.69H466.15a65.7,65.7,0,1,1,130.4-1.28l27.56-5.07L639,196.89a29.89,29.89,0,0,0,2.2-12.34C641,178.87,640.26,171,637.73,166.13Z"/><path class="cls-5" d="M618.93,136.54c-1.91-2.33-6.84-7.83-12.66-10.39,0,0-56.22-15.67-130.84-20.1l-107.1-66s-18.17-8.18-51.79-8.18c0,0-149-1.31-231.12,13.92a11.68,11.68,0,0,0-5.82,2.92L27.14,97.3s-15.22,7.38-17.83,18.51V116H60.72l476.75,12.71Z"/><ellipse class="cls-6" cx="326.29" cy="289.35" rx="319.79" ry="12.68"/><circle class="cls-7" cx="531.27" cy="231.25" r="58.47"/><path class="cls-8" d="M531.27,172.78a58.47,58.47,0,1,0,58.47,58.47A58.47,58.47,0,0,0,531.27,172.78Zm38.3,96.77a54,54,0,1,1,11.61-17.22A54,54,0,0,1,569.57,269.55Z"/><path class="cls-8" d="M531.27,185.63a45.62,45.62,0,1,0,45.62,45.62A45.67,45.67,0,0,0,531.27,185.63ZM571,231.25a39.58,39.58,0,1,1-3.12-15.46A39.47,39.47,0,0,1,571,231.25Z"/><g id="_Group_" data-name="&lt;Group&gt;"><g id="_Group_2" data-name="&lt;Group&gt;"><g id="_Group_3" data-name="&lt;Group&gt;"><path class="cls-9" d="M571,231.25a39.7,39.7,0,1,1-39.6-39.7A39.82,39.82,0,0,1,571,231.25Z"/></g></g></g><g id="_Group_4" data-name="&lt;Group&gt;"><g id="_Group_5" data-name="&lt;Group&gt;"><g id="_Group_6" data-name="&lt;Group&gt;"><path class="cls-7" d="M563.87,231.25a32.6,32.6,0,1,1-32.52-32.6A32.7,32.7,0,0,1,563.87,231.25Z"/></g></g></g><path class="cls-10" d="M563.86,234.67l0-6.85H552.21a21.09,21.09,0,0,0-1.08-4.08l10.12-5.83L557.84,212l-10.12,5.83a21.38,21.38,0,0,0-3-3l5.86-10.1-5.92-3.42-5.86,10.1a20.87,20.87,0,0,0-4.08-1.09l0-11.67h-6.85l0,11.67a21,21,0,0,0-4.08,1.09L518,201.3l-5.94,3.42,5.81,10.1a21.59,21.59,0,0,0-3,3L504.8,212l-3.44,5.93,10.09,5.83a21.12,21.12,0,0,0-1.1,4.08H498.68l0,6.85h11.67a20.89,20.89,0,0,0,1.08,4.08l-10.12,5.83,3.41,5.93,10.12-5.83a21.33,21.33,0,0,0,3,3l-5.86,10.1,5.92,3.42,5.86-10.1a20.92,20.92,0,0,0,4.08,1.09l0,11.67h6.85l0-11.67a21.1,21.1,0,0,0,4.09-1.09l5.81,10.1,5.94-3.42-5.81-10.1a21.45,21.45,0,0,0,3-3l10.09,5.83,3.44-5.93-10.09-5.83a21.05,21.05,0,0,0,1.1-4.08Z"/><g id="_Group_7" data-name="&lt;Group&gt;"><g id="_Group_8" data-name="&lt;Group&gt;"><g id="_Group_9" data-name="&lt;Group&gt;"><path class="cls-7" d="M541.24,231.25a10,10,0,1,1-9.95-10A10,10,0,0,1,541.24,231.25Z"/></g></g></g><path class="cls-9" d="M531.27,247.07a15.81,15.81,0,1,1,15.81-15.81A15.83,15.83,0,0,1,531.27,247.07Zm0-29.92a14.11,14.11,0,1,0,14.11,14.11A14.13,14.13,0,0,0,531.27,217.14Z"/><g id="_Group_10" data-name="&lt;Group&gt;"><g id="_Group_11" data-name="&lt;Group&gt;"><g id="_Group_12" data-name="&lt;Group&gt;"><path class="cls-11" d="M537.06,231.25a5.79,5.79,0,1,1-5.78-5.79A5.81,5.81,0,0,1,537.06,231.25Z"/></g></g></g><path class="cls-9" d="M531.27,210.51A20.74,20.74,0,1,0,552,231.25,20.76,20.76,0,0,0,531.27,210.51Zm18.06,20.74a18,18,0,1,1-1.42-7A17.9,17.9,0,0,1,549.33,231.25Z"/><path class="cls-9" d="M531.27,194.36a36.89,36.89,0,1,0,36.89,36.89A36.93,36.93,0,0,0,531.27,194.36Zm32.12,36.89a32,32,0,1,1-2.52-12.5A31.95,31.95,0,0,1,563.39,231.25Z"/><circle class="cls-7" cx="110.58" cy="231.25" r="58.47"/><path class="cls-8" d="M110.58,172.78A58.47,58.47,0,1,0,169,231.25,58.47,58.47,0,0,0,110.58,172.78Zm38.3,96.77a54,54,0,1,1,11.61-17.22A54,54,0,0,1,148.88,269.55Z"/><path class="cls-8" d="M110.58,185.63a45.62,45.62,0,1,0,45.62,45.62A45.67,45.67,0,0,0,110.58,185.63Zm39.72,45.62a39.6,39.6,0,1,1-3.12-15.46A39.49,39.49,0,0,1,150.29,231.25Z"/><g id="_Group_13" data-name="&lt;Group&gt;"><g id="_Group_14" data-name="&lt;Group&gt;"><g id="_Group_15" data-name="&lt;Group&gt;"><path class="cls-9" d="M150.28,231.25a39.7,39.7,0,1,1-39.6-39.7A39.82,39.82,0,0,1,150.28,231.25Z"/></g></g></g><g id="_Group_16" data-name="&lt;Group&gt;"><g id="_Group_17" data-name="&lt;Group&gt;"><g id="_Group_18" data-name="&lt;Group&gt;"><path class="cls-7" d="M143.18,231.25a32.6,32.6,0,1,1-32.52-32.6A32.7,32.7,0,0,1,143.18,231.25Z"/></g></g></g><path class="cls-10" d="M143.17,234.67l0-6.85H131.52a21.1,21.1,0,0,0-1.08-4.08l10.12-5.83L137.15,212,127,217.81a21.27,21.27,0,0,0-3-3l5.86-10.1L124,201.3l-5.86,10.1a21,21,0,0,0-4.08-1.09l0-11.67h-6.85l0,11.67a21,21,0,0,0-4.08,1.09l-5.81-10.1-5.93,3.42,5.81,10.1a21.43,21.43,0,0,0-3,3L84.1,212l-3.44,5.93,10.09,5.83a21.13,21.13,0,0,0-1.1,4.08H78l0,6.85H89.63a21,21,0,0,0,1.08,4.08L80.6,244.58,84,250.51l10.12-5.83a21.48,21.48,0,0,0,3,3l-5.86,10.1,5.92,3.42,5.86-10.1a21,21,0,0,0,4.08,1.09l0,11.67h6.85l0-11.67a21.06,21.06,0,0,0,4.08-1.09l5.81,10.1,5.94-3.42L124,247.67a21.5,21.5,0,0,0,3-3l10.09,5.83,3.44-5.93-10.09-5.83a20.85,20.85,0,0,0,1.1-4.08Z"/><g id="_Group_19" data-name="&lt;Group&gt;"><g id="_Group_20" data-name="&lt;Group&gt;"><g id="_Group_21" data-name="&lt;Group&gt;"><path class="cls-7" d="M120.54,231.25a10,10,0,1,1-9.94-10A10,10,0,0,1,120.54,231.25Z"/></g></g></g><path class="cls-9" d="M110.58,247.07a15.81,15.81,0,1,1,15.81-15.81A15.83,15.83,0,0,1,110.58,247.07Zm0-29.92a14.11,14.11,0,1,0,14.11,14.11A14.12,14.12,0,0,0,110.58,217.14Z"/><g id="_Group_22" data-name="&lt;Group&gt;"><g id="_Group_23" data-name="&lt;Group&gt;"><g id="_Group_24" data-name="&lt;Group&gt;"><path class="cls-11" d="M116.36,231.25a5.79,5.79,0,1,1-5.77-5.79A5.8,5.8,0,0,1,116.36,231.25Z"/></g></g></g><path class="cls-9" d="M110.58,210.51a20.74,20.74,0,1,0,20.74,20.74A20.76,20.76,0,0,0,110.58,210.51Zm18.05,20.74a18,18,0,1,1-1.42-7A18,18,0,0,1,128.63,231.25Z"/><path class="cls-9" d="M110.58,194.36a36.89,36.89,0,1,0,36.89,36.89A36.93,36.93,0,0,0,110.58,194.36Zm32.12,36.89a32,32,0,1,1-2.52-12.5A31.93,31.93,0,0,1,142.7,231.25Z"/><path class="cls-5" d="M531.27,155.25a75.8,75.8,0,0,1,75.59,70.21q.2-2.77.21-5.59a75.79,75.79,0,1,0-151.58,0c0,1.88.07,3.74.2,5.59A75.8,75.8,0,0,1,531.27,155.25Z"/><path class="cls-5" d="M110.58,155.25a75.8,75.8,0,0,1,75.59,70.21q.2-2.77.2-5.59a75.79,75.79,0,1,0-151.58,0c0,1.88.07,3.74.21,5.59A75.81,75.81,0,0,1,110.58,155.25Z"/><path class="cls-12" d="M175.51,221.28a66.09,66.09,0,0,1,.18,18.66H466.15a66.19,66.19,0,0,1,.18-18.66Z"/><path class="cls-12" d="M10.31,221.28c2.66,5.13,6,10.08,9.86,13.37L24,236.46l16.51,3.48h4.91a66.24,66.24,0,0,1,.18-18.66Z"/><path class="cls-12" d="M596.21,221.28a66.1,66.1,0,0,1,.33,17.38l27.56-5.07,5-12.31Z"/><path class="cls-12" d="M316.54,31.88s-148.75-1.3-230.9,13.88a12.53,12.53,0,0,0-6.21,3.11L35.69,89.17,475.43,106l-107.1-66S350.16,31.88,316.54,31.88Z"/><path class="cls-13" d="M9.3,116,8.18,137.73l-1.33,1c10.81-.13,23.72-.83,23.72-.83,17.83-1.42,29.21-17.64,29.21-17.64,2.28-2.47.95-4.27.95-4.27Z"/><path class="cls-12" d="M514.07,129l-76.76-4.35a1.54,1.54,0,0,0-1,2.77,36.32,36.32,0,0,0,10.28,5.43l44.3,3a53.06,53.06,0,0,0,23.59-4.62A1.16,1.16,0,0,0,514.07,129Z"/><path class="cls-14" d="M256.85,88.38l-9.53-44.81s76.32-1.06,100.55,0c0,0,34.93,10.58,93.14,54Z"/><g class="cls-15"><polygon class="cls-16" points="363.06 0 297.48 140.65 356.27 140.65 421.86 0 363.06 0"/><polygon class="cls-16" points="271.88 0 206.29 140.65 227.24 140.65 292.82 0 271.88 0"/><polygon class="cls-16" points="450.83 0 385.24 140.65 419.85 140.65 485.44 0 450.83 0"/><polygon class="cls-16" points="315.14 0 249.55 140.65 263.07 140.65 328.66 0 315.14 0"/><polygon class="cls-16" points="333.65 0 268.06 140.65 276.77 140.65 342.35 0 333.65 0"/></g><path class="cls-14" d="M239.57,43.93l3.53,44.34L75.75,83.91l32.93-30.58S193.83,44.65,239.57,43.93Z"/><g class="cls-17"><polygon class="cls-16" points="187.61 17.95 122.02 158.6 180.81 158.6 246.4 17.95 187.61 17.95"/><polygon class="cls-16" points="96.42 17.95 30.83 158.6 51.78 158.6 117.37 17.95 96.42 17.95"/><polygon class="cls-16" points="275.37 17.95 209.79 158.6 244.4 158.6 309.99 17.95 275.37 17.95"/><polygon class="cls-16" points="139.69 17.95 74.1 158.6 87.62 158.6 153.21 17.95 139.69 17.95"/><polygon class="cls-16" points="158.19 17.95 92.61 158.6 101.31 158.6 166.9 17.95 158.19 17.95"/></g><path class="cls-3" d="M442.24,95.91c-30.19-22.5-54-36-68.7-43.45-16-8.06-24.7-10.74-25.06-10.85l-.25-.07H348c-7.17-.31-19.59-.47-36.92-.47v0c-29.47,0-63.41.47-63.75.47l-2.49,0,.52,2.44,9.53,44.81.33,1.54,1.57.08,184.16,9.17,6.71.33ZM256.85,88.38l-9.53-44.81s33.92-.47,63.71-.47c14.9,0,28.76.12,36.83.47,0,0,34.93,10.58,93.14,54Z"/><path class="cls-3" d="M241.61,43.76l-.15-1.91-1.92,0c-45.3.72-130.21,9.33-131.06,9.42l-.68.07-.5.47L74.36,82.41l-3.67,3.41,5,.13L243,90.3l2.27.06-.18-2.27ZM75.75,83.91l32.93-30.58s85.15-8.68,130.89-9.41l3.53,44.34Z"/><path class="cls-12" d="M118.15,40.92a197.56,197.56,0,0,0-54.34,3l-2,3s4.46,1.92,25.66,14.5Z"/><path class="cls-18" d="M631.37,157.61l-11.58-20s-.3-.41-.85-1.08l-81.46-7.78s4,5.61,15.33,11.22l18.34,4.11s8.89,3.28,12.45,6.7l48.5,7.79Z"/><ellipse class="cls-19" cx="615.64" cy="146.28" rx="3.37" ry="7.35" transform="translate(-14.3 206.12) rotate(-18.79)"/><ellipse class="cls-19" cx="606.36" cy="144.8" rx="3.12" ry="6.82" transform="translate(-14.34 202.9) rotate(-18.78)"/><ellipse class="cls-19" cx="597.49" cy="143.47" rx="2.89" ry="6.3" transform="translate(-14.37 200.04) rotate(-18.78)"/><ellipse class="cls-19" cx="588.84" cy="142.44" rx="2.72" ry="5.95" transform="translate(-14.5 197.25) rotate(-18.79)"/><path class="cls-20" d="M574.93,132.33l-37.46-3.58s4,5.61,15.33,11.22l18.34,4.11s8.89,3.28,12.45,6.7l.81.13Z"/><path class="cls-21" d="M631.37,157.61l-11.58-20s-.3-.41-.85-1.08l-81.46-7.78s4,5.61,15.33,11.22l18.34,4.11s8.89,3.28,12.45,6.7l48.5,7.79Zm-47.16-8.11c-3.88-3.46-12.24-6.57-12.6-6.7l-.09,0-.09,0-18.17-4.07a51.89,51.89,0,0,1-12.34-8.23l77.31,7.39.42.53,10.65,18.37Z"/><path class="cls-22" d="M619.78,137.62s-.3-.41-.85-1.08l-81.46-7.78a24.29,24.29,0,0,0,3.89,3.92l84.57,15.56Z"/><path class="cls-23" d="M271.85,124.1l.27-9a2.42,2.42,0,0,1,2.4-2.43l31,.91a2.41,2.41,0,0,1,2.25,2.56l-.27,9a2.42,2.42,0,0,1-2.4,2.42l-31-.91A2.41,2.41,0,0,1,271.85,124.1Z"/><path class="cls-24" d="M274.28,121l31,.91a2.42,2.42,0,0,0,2.4-2.43l.1-3.34a2.41,2.41,0,0,0-2.25-2.56l-31-.91a2.42,2.42,0,0,0-2.4,2.43l-.1,3.34A2.41,2.41,0,0,0,274.28,121Z"/><path class="cls-18" d="M9,121.57l-.84,16.16-1.33,1c2.54,0,5.19-.09,7.77-.17a30.42,30.42,0,0,0,9.65-17Z"/><path class="cls-21" d="M60.72,116H9.3L8.18,137.73l-1.33,1c10.81-.13,23.72-.83,23.72-.83,17.83-1.42,29.21-17.64,29.21-17.64C62.05,117.85,60.72,116,60.72,116Zm-2,3.34-.06.07-.05.07c-.11.16-11.24,15.7-28.19,17.06-.5,0-11.09.59-20.91.78l1-20H59.75A3,3,0,0,1,58.77,119.39Z"/><polygon class="cls-5" points="175.51 185.63 449.7 195.45 449.7 202.49 182.51 202.49 175.51 185.63"/><path class="cls-25" d="M449,104.86l-2.72.24,3.44,39v69.94H292.06c-1.61-1.46-8.62-8.36-16.28-23.85-8-16.25-18.44-45.54-22.4-92.79l-2.72.23c4,47.85,14.61,77.54,22.8,94,8.94,18,16.9,24.54,17.23,24.81l.38.3H452.43V144.07Z"/><path class="cls-12" d="M606.62,176.39c1.72,7.42,4.78,21.81,5.62,33.57a1.81,1.81,0,0,0,1.81,1.67h8.82a4,4,0,0,0,2.87-1.2c3-3.06,9.85-12.48,7.61-33.56,0,0-.79-3.58-3.35-4.32l-19.45-.9A3.86,3.86,0,0,0,606.62,176.39Z"/><path class="cls-12" d="M441,97.55c-13.16-9.81-25.13-17.94-35.78-24.66l1.93,23Z"/><g class="cls-26"><path class="cls-27" d="M597,231.25a66.26,66.26,0,0,1-.42,7.41l27.56-5.07L639,196.89a29.89,29.89,0,0,0,2.2-12.34c-.19-5.32-.88-12.56-3.05-17.46H545.44A65.72,65.72,0,0,1,597,231.25Z"/><path class="cls-27" d="M517.1,167.09H124.75a65.72,65.72,0,0,1,51.52,64.16,66.43,66.43,0,0,1-.57,8.69H466.15a65.74,65.74,0,0,1,51-72.85Z"/><path class="cls-27" d="M2.27,200.31s6.29,24.54,17.91,34.33L24,236.46l16.51,3.48h4.91a65.74,65.74,0,0,1,51-72.85H2.27v3.46L4,181.23l-4,3.41Z"/></g><g class="cls-28"><path class="cls-27" d="M347.88,43.57c-8.08-.35-21.94-.47-36.83-.47-29.79,0-63.71.47-63.71.47l9.53,44.81L441,97.55C382.8,54.16,347.88,43.57,347.88,43.57Zm-98.55,1.59c7.67-.1,36.36-.44,61.72-.44h0c17.1,0,29.4.15,36.55.46,1.35.43,9.94,3.31,24.41,10.62,13.82,7,35.86,19.46,63.73,39.87L258.18,86.82Z"/><path class="cls-27" d="M108.68,53.33,75.75,83.91,243.1,88.26l-3.53-44.34C193.83,44.65,108.68,53.33,108.68,53.33ZM79.76,82.39l29.62-27.5c7.26-.73,85.12-8.47,128.69-9.32l3.26,41Z"/></g><path class="cls-4" d="M396.78,86.31V70.5S397,68,401.64,68c0,0,10.18,1.18,13.58,5.89a54.43,54.43,0,0,1,6,17.77s-1.25,4-4.08,3.83c0,0-10.3-.59-15-2.95C402.1,92.5,396.78,89.46,396.78,86.31Z"/><path class="cls-5" d="M401.64,68a10.4,10.4,0,0,0-1.22.07c2.87,3.48,11.08,14.32,13.43,27.14,1.94.21,3.29.29,3.29.29,2.83.2,4.08-3.83,4.08-3.83a54.42,54.42,0,0,0-6-17.77C411.83,69.13,401.64,68,401.64,68Z"/></g></g></g></svg>