<svg xmlns="http://www.w3.org/2000/svg" xmlns:xlink="http://www.w3.org/1999/xlink" viewBox="0 0 792.24 792.66"><defs><style>.cls-1{isolation:isolate;}.cls-2{fill:url(#radial-gradient);}.cls-20,.cls-3{opacity:0.6;}.cls-4{fill:#7c708e;}.cls-5{fill:#414042;}.cls-6{fill:#6d6e71;}.cls-7{fill:#9b9b9b;}.cls-8{fill:#323133;}.cls-9{fill:#ed3c2f;}.cls-10{fill:#3d3839;opacity:0.4;}.cls-11{fill:#494546;}.cls-12,.cls-13,.cls-19,.cls-23{fill:#231f20;}.cls-12{opacity:0.3;}.cls-13,.cls-16{opacity:0.5;}.cls-14,.cls-31{fill:#f1f2f2;}.cls-15{fill:#bcbec0;}.cls-17{fill:#7d3315;}.cls-18{fill:#5b1f0a;}.cls-20,.cls-29{fill:#4f4d51;}.cls-21{fill:#ffa969;}.cls-22{fill:#00a79d;}.cls-23{opacity:0.2;mix-blend-mode:multiply;}.cls-24{fill:url(#linear-gradient);}.cls-25{fill:#ff8a54;}.cls-26{fill:#7f2c08;}.cls-27{fill:#fff;}.cls-28{fill:#58595b;}.cls-30{fill:none;stroke:#323133;stroke-linecap:round;stroke-miterlimit:10;stroke-width:2px;}.cls-31{opacity:0.7;}</style><radialGradient id="radial-gradient" cx="23.35" cy="40.22" r="1180.95" gradientUnits="userSpaceOnUse"><stop offset="0" stop-color="#fff"/><stop offset="1" stop-color="#edf2f2"/></radialGradient><linearGradient id="linear-gradient" x1="452.04" y1="456.12" x2="492.04" y2="241.12" gradientUnits="userSpaceOnUse"><stop offset="0" stop-color="#4f4d51"/><stop offset="1" stop-color="#323133"/></linearGradient></defs><title>man-time</title><g class="cls-1"><g id="Layer_2" data-name="Layer 2"><g id="Layer_1-2" data-name="Layer 1"><path class="cls-2" d="M0,792.66H755.44c23.79-63.78,36.8-134.3,36.8-206.37C792.24,262.49,529.75,0,206,0A590.6,590.6,0,0,0,0,36.83Z"/><g class="cls-3"><path class="cls-4" d="M117.62,725.9l56.49-84.84-2.29-1.58a56.83,56.83,0,0,1-14-13.74l-.9-1.25L81,628V579.57l67.09,3.12.52-2.32a56.86,56.86,0,0,1,51.93-44.15l2.64-.16,2.95-307.64L217.87,537.8l2,.57a56.53,56.53,0,0,1,14.79,6.75l2.35,1.51L359.1,363.19l-4.94-3.42,24.2-31,32.46-44.6-9.5-.5c-6.6-1.53-.88.47,0,.5,3.45-2.49,3.68-8,4-10.5l12.75-6.21c.59.77,1.21,1.6,1.66,2.26l2.19,3.22,2.07-2.65-.72,1.38,3.4,2.78-1.29,2.5,10.69,4.17,1.29-1.08a4.83,4.83,0,0,1,2.72-1.16c12,6.32,25.08,13.62,27,15.36,3.35,5.76,12.49,35.15,13.38,46.24a34.77,34.77,0,0,1-1,7.29,48.06,48.06,0,0,0-.94,5.76c-.51,7.94.77,23.32,2.52,30.48,3,12.27,19,37.37,22,42.08-.29.88-1.85,3.93-10.1,9.29l-1.61,1,.37,1.88A121.51,121.51,0,0,1,493.59,454c.86,13.8,5.19,49.22,6,51.31,3.17,8.69,30.2,51.93,32.3,55.3.45,1,1.36,3.82.42,5.52l-1,1.75,1.33,1.5a27.83,27.83,0,0,1,3.1,4.12l.09.17.2.39.06.14c0,.11.09.21.12.31l0,.11a1,1,0,0,1,0,.13,37.42,37.42,0,0,1-.76,4.83l-.11.51.08.51a16.18,16.18,0,0,1,.21,3.16,10.44,10.44,0,0,1-6.45,3.81c-.55,0-1.71.1-4.09.1h-.35c-2.07,0-4.3,0-5.85-.06h0c-.06-.23-.12-.44-.17-.64v-.22l-.11-.27c0-.1,0-.18,0-.23a20.29,20.29,0,0,1,1.45-2.29,13.21,13.21,0,0,0,2.4-4.55,23.69,23.69,0,0,0,.13-5.43l-.11-2.66-2.66-.07c-.77,0-1.34-.07-1.62-.1a9.36,9.36,0,0,1-3.55-1.92s-.28-.33-1.51-1.91l-.25-.32-.32-.24-.21-.17a3.2,3.2,0,0,0-.23-3.35c-8.37-11.69-28.49-42.41-32.06-50.45-1.09-2.54-8.63-33.46-13.12-52.35l-.72-3-2.77.93h-.09l-.71,0c-.35,0-.71,0-1,0-2.17,0-3.58.77-4.2,2.29a212.08,212.08,0,0,1-10.94,22.61c-4.22,7.76-6.76,12.44-5.72,17.63.3,1.87,3.81,38.15,6.23,63.52l-2.42.21.53,13.9a4.81,4.81,0,0,1-1.78.28l-.51,0c-1.44-.08-5.27-1.6-7.4-2.59l-.71-.33-.78.08s-4,.41-8.13.41a30.13,30.13,0,0,1-6.94-.61,16.07,16.07,0,0,1-8.44-4.92c0-.2.1-.37.14-.53,1.1.06,2.27.08,3.46.08,3.09,0,8.81-.2,12.31-1.54.73-.28,1.86-.9,4.15-3.24l3-3-3.94-1.58a5.89,5.89,0,0,1-.76-.36,10.52,10.52,0,0,1-1-2.39l2.5,1.67-1.13-6.53c-5.69-32.74-9.23-54.52-9.24-56.83a86.51,86.51,0,0,1,1.76-10.2c1.31-4.91,3.75-13,7.25-24.15l1.7-5.39L418.25,461c-1.48-8.56-.92-22.49-.5-32.91.12-3,.23-5.86.29-8.28.08-3.47.88-9.72,1.65-15.77,1.76-13.81,1.87-16.13.81-17.7l-.91-1.35-1.63.11s-2.53.16-5.69.16c-8.15,0-10.74-1-11.34-1.37-1.77-.95-8.7-8.31-20.2-22.63L378,357.92l-6.66,12.71-4.44-2.2L249.34,558.78l1.07,1.53a56.64,56.64,0,0,1,9.77,25.25l.3,2.36,160.21,7.46v-8.51l147.61,16.83-147.61,18.7V612.2l-167,7.77-.78,1.33a57,57,0,0,1-29.05,24.56l-1.91.72,2.38,62.86-22.79.26.58-60.2-2.64-.21c-1.3-.1-2.59-.25-3.81-.42l-1.84-.27-55.91,90.51Zm271-376.43c3.7,2.58,8.18,7.86,11.85,12.18,5.34,6.29,7.61,8.84,10.2,8.84a3.55,3.55,0,0,0,.62-.05c.93-.16,2.12-.76,5.49-2.6.75-.41,1.79-1,2-1.09a17.86,17.86,0,0,0,4.72-3.6,18.07,18.07,0,0,1,3.44-2.79c1.5-.36,3.17-.72,4.93-1.05l1.38-.26,2.86-5.72-7-6.73-1.56.42a17.3,17.3,0,0,1-4.19.6,5.49,5.49,0,0,1-1-.08l-.15-.09a3,3,0,0,1-.23-.53,2,2,0,0,1-.14-.94,3.89,3.89,0,0,0-1-3,6.53,6.53,0,0,0-1.54-1.25,3.28,3.28,0,0,0-.5-.92,9.77,9.77,0,0,1-.54-1.2,9.69,9.69,0,0,0-1.62-2.93,7.36,7.36,0,0,0-2.37-1.56l-.38-.18c.09-.55.26-1.29.38-1.79a12.51,12.51,0,0,0,.5-3.37,12.27,12.27,0,0,0-1.21-4.05l-.71-1.66-1.82-.1a3.47,3.47,0,0,1-1.79-.34l-.11-.4a7,7,0,0,0-.27-.84c-.64-1.54-.55-7.71,5.41-12.93,3.66-3.21,10.42-7,17.43-7a18.35,18.35,0,0,1,2.7.2c7.16,1.07,11.72,8.87,13.61,15.81a116.37,116.37,0,0,1,2.32,15.87l.26,2.87,8.39-.88.64-.49a12,12,0,0,0,3.71-4.21c1.34-2.86-.19-8.3-4.14-19.41-.81-2.29-1.58-4.46-1.77-5.3-.33-1.43-.61-2.67-23.91-14.48,0-.46,0-1,0-1.72l.1-2-6-2.41-.12.05-8.25-3.22-36.08,64.8,3.87,2.85Z"/></g><path class="cls-5" d="M505.73,425l.09.14A1.31,1.31,0,0,0,505.73,425Z"/><path class="cls-5" d="M400.49,272.44A7.67,7.67,0,0,0,404,275c1.73.85,4,1,4.31-1.49a2.68,2.68,0,0,0-.51-1.68,3.11,3.11,0,0,0,1.35.31,3,3,0,0,0,2.55-1.9,2.39,2.39,0,0,0-.6-2.61A2.54,2.54,0,0,0,413.7,264c-.59-1.23-2.2-2.27-3.3-3-1.43-.9-3.48-1.33-4.21.64a1.54,1.54,0,0,0-.09.41,1.35,1.35,0,0,0-.08,1,5.07,5.07,0,0,0,.46,1,4.13,4.13,0,0,0-1.1-.44,1.11,1.11,0,0,0-.57-.09h-.33a1.54,1.54,0,0,0-1.1.53,1.62,1.62,0,0,0-.7,1.52s0,0,0,0a1.51,1.51,0,0,0-.05.76,3.81,3.81,0,0,0,.82,1.68,3.15,3.15,0,0,0-3.1-.39,1.45,1.45,0,0,0-.5.39,1.8,1.8,0,0,0-.67,2A4.79,4.79,0,0,0,400.49,272.44Z"/><path class="cls-5" d="M404.22,279.62a1.36,1.36,0,0,0,.24-1.68c-.34-1.66-3-3.35-4.1-4.06s-2.11-1.17-3.34-.59c-1.47.7-.93,2.62-.36,3.7C398,279.58,401.59,282.29,404.22,279.62Z"/><path class="cls-6" d="M199.89,133.1a10.66,10.66,0,0,1-10.64-10.64V50.89a10.65,10.65,0,0,1,21.29,0v71.57A10.66,10.66,0,0,1,199.89,133.1Z"/><path class="cls-6" d="M676.25,602.35a10.65,10.65,0,1,1,0-21.29h71.57a10.65,10.65,0,0,1,0,21.29Z"/><path class="cls-6" d="M435,194.75a10.65,10.65,0,0,1-9.22-15.95l35.63-62.08a10.65,10.65,0,1,1,18.47,10.6L444.21,189.4A10.68,10.68,0,0,1,435,194.75Z"/><path class="cls-6" d="M613.6,362.19a10.68,10.68,0,0,1-9.24-5.35,10.64,10.64,0,0,1,3.93-14.53l62.08-35.63A10.64,10.64,0,1,1,681,325.15l-62.08,35.63a10.64,10.64,0,0,1-5.28,1.41Z"/><circle class="cls-7" cx="253.43" cy="60.2" r="9.56"/><circle class="cls-7" cx="307.33" cy="69.76" r="9.56"/><circle class="cls-7" cx="361.91" cy="81.83" r="9.56"/><circle class="cls-7" cx="415.75" cy="100.95" r="9.56"/><circle class="cls-7" cx="513.62" cy="154.56" r="9.56" transform="translate(124.63 523.87) rotate(-60.26)"/><circle class="cls-7" cx="555.68" cy="189.61" r="9.56" transform="translate(115.35 577.99) rotate(-60.25)"/><circle class="cls-7" cx="597.07" cy="227.16" r="9.56" transform="translate(103.61 632.87) rotate(-60.26)"/><circle class="cls-7" cx="634.33" cy="270.47" r="9.56" transform="translate(84.79 687.06) rotate(-60.26)"/><circle class="cls-7" cx="694.11" cy="370.07" r="9.56" transform="translate(-92 397.74) rotate(-30.08)"/><circle class="cls-7" cx="712.85" cy="421.51" r="9.56" transform="translate(-115.26 414.07) rotate(-30.08)"/><circle class="cls-7" cx="729.76" cy="474.78" r="9.56" transform="translate(-139.68 429.65) rotate(-30.08)"/><circle class="cls-7" cx="740.2" cy="530.96" r="9.56" transform="translate(-166.43 442.48) rotate(-30.08)"/><circle class="cls-7" cx="141.01" cy="64.72" r="9.56"/><circle class="cls-7" cx="87.11" cy="74.28" r="9.56"/><circle class="cls-7" cx="32.53" cy="86.35" r="9.56"/><circle class="cls-7" cx="712.85" cy="767.99" r="9.56" transform="translate(-309 999.91) rotate(-59.92)"/><circle class="cls-7" cx="729.76" cy="714.72" r="9.56" transform="translate(-254.45 988.04) rotate(-59.92)"/><circle class="cls-7" cx="740.2" cy="658.55" r="9.56" transform="matrix(0.5, -0.87, 0.87, 0.5, -200.64, 969.02)"/><polygon class="cls-8" points="106.67 710.71 348.2 347.94 343.07 344.4 434.12 227.68 365.57 358.4 360.97 356.12 131.83 727.07 106.67 710.71"/><polygon class="cls-5" points="343.07 344.4 348.2 347.94 106.67 710.71 118.2 718.21 118.99 718.15 434.12 227.68 343.07 344.4"/><polygon class="cls-9" points="217.02 695.98 194.29 696.2 200.03 168.91 201.78 168.9 217.02 695.98"/><path class="cls-10" d="M194.95,636.37a49.19,49.19,0,0,0,20.34-.48l-2.57-89.06a54.28,54.28,0,0,0-8.91-.68,48.56,48.56,0,0,0-7.86.59Z"/><polygon class="cls-11" points="71.21 614.98 71.21 564.65 71.21 560.6 76.07 560.83 522.25 581.6 522.25 593.98 71.21 614.98"/><polygon class="cls-11" points="410.85 609.6 410.85 567.69 567.72 585.57 567.72 589.73 410.85 609.6"/><polygon class="cls-12" points="71.21 614.98 410.85 599.17 410.85 609.6 567.72 589.73 567.72 588.15 71.21 588.48 71.21 614.98"/><path class="cls-13" d="M160.75,592.79a43,43,0,0,0,3.86,17.84l80.19-3.73a43.2,43.2,0,0,0-5.15-38.46l-69-3.21A43,43,0,0,0,160.75,592.79Z"/><circle class="cls-14" cx="203.96" cy="587.79" r="38.19"/><circle class="cls-15" cx="203.96" cy="587.79" r="28.27"/><g class="cls-16"><path class="cls-5" d="M204,559.52a28.27,28.27,0,1,1-28.27,28.27A28.27,28.27,0,0,1,204,559.52m0-3a31.27,31.27,0,1,0,31.27,31.27A31.3,31.3,0,0,0,204,556.52Z"/></g><path class="cls-17" d="M451.57,554.65l.61,15.92s-1.15,2.11-5.41,1.86c-2.69-.16-8.55-2.89-8.55-2.89s-10.81,1.14-16.29-.28c-8-2.08-10.89-7.1-10.89-7.1s.6-4.26,2.06-4.15c4.6.35,12.37.22,16.1-1.21,1.52-.59,4.83-4.4,4.83-4.4Z"/><path class="cls-18" d="M446.89,569.09c-2.69-.16-8.55-2.89-8.55-2.89s-10.81,1.14-16.29-.28a18.8,18.8,0,0,1-10.37-6.34,14.09,14.09,0,0,0-.64,2.58s2.86,5,10.89,7.1c5.48,1.42,16.29.28,16.29.28s5.85,2.74,8.55,2.89c4.26.25,5.41-1.86,5.41-1.86l0-3.2C451.88,567.82,450.51,569.31,446.89,569.09Z"/><path class="cls-17" d="M524.8,563.14a44.23,44.23,0,0,1,0,6.56c-.36,1.86-3.58,5.17-3.94,7-.22,1.14,1.09,4.66,1.09,4.66s9.57.25,12.74,0a13,13,0,0,0,8.94-5.51c.59-1.06,0-4.85,0-4.85a34.83,34.83,0,0,0,.81-5.84c-.33-2.81-5.47-8.13-5.47-8.13Z"/><path class="cls-18" d="M544.44,565.19a8.24,8.24,0,0,0-1.4-3.1,36.41,36.41,0,0,1-.82,5.77s.59,3.79,0,4.85a13,13,0,0,1-8.94,5.52c-2.77.22-10.38.06-12.29,0a27.53,27.53,0,0,0,1,3.16s9.57.25,12.74,0a13,13,0,0,0,8.94-5.51c.59-1.06,0-4.85,0-4.85A34.82,34.82,0,0,0,544.44,565.19Z"/><path class="cls-19" d="M421.9,453.42l14.94-5.21s41.89-9.95,54.39-16.75c22.29-12.14,19.5-17.47,19.5-17.47l-2.91-4.22-80.91-9.67-5,40.17Z"/><path class="cls-8" d="M439.52,421.18s-12.87,39.08-16.84,54a86.49,86.49,0,0,0-1.88,11.08c0,4.73,11,67,11,67s6.5,2.29,13.09,3.83c7.36,1.72,9.41,0,9.41,0s-6.21-65.18-6.58-67c-1.5-7.45,7-15.25,16.72-39.11.4-1,3.22-.24,4.21-.57,0,0,11.89,50,13.46,53.54,3.76,8.46,24.11,39.52,32.77,51.62.37.51-1,1.54-.62,2,.61.8,2.89,3.79,3.36,4.32,1.66,1.88,5.16,2.86,5.16,2.86a23.86,23.86,0,0,0,11.43-1.46,18.36,18.36,0,0,0,5.47-4.4c2.68-3.57,0-9,0-9S510.28,503,507.08,494.22c-.52-1.44-4.95-36.5-5.87-51.18-1.22-19.67-5.5-33.28-11.57-33.28Z"/><path class="cls-20" d="M495.31,450.57c-.32-4.17-1.8-12.53-3.13-19.5a62.83,62.83,0,0,1-10.45-4.42,24.46,24.46,0,0,1-6.6-6.5l-12,.38c-.2,3.42-.44,17.54-2.15,18.64-.92.59-3.38.19-4.48.13.07-6.08.15-12.34.17-18.57l-5.67.18c-.24.79-.41,1.62-.61,2.23-1.54,4.61-7.13,10.23-12.16,12.48-4.88,14.74-11.76,36.44-14.06,49.3-1.17,6.55,6.68,7.65,8.43,5.89,6.92-7,25.28-40.93,25.28-40.93l-4.34-3.25s7.74-.16,11.82-.62c3.32-.37,12.87-3.63,12.87-3.63l-5.4,5.4c.88,7.46,7.43,42.46,16.51,49.72,1.83,1.46,7.36-1.09,7.61-1.78C500,487.3,496.19,461.94,495.31,450.57Z"/><path class="cls-21" d="M446.33,270l-17.14-6.52s-1.92-5.93-2.67-7.54a62.33,62.33,0,0,0-4.28-5.85L413,268.27a37.51,37.51,0,0,0-7,1.65,3.7,3.7,0,0,0-2.7,4.52s9,.24,11.15,0,6.23-2.29,6.23-2.29l10.87,4.36Z"/><path class="cls-21" d="M387.63,323.24c-.24-3-5.8-12.12-5.8-12.12a4.3,4.3,0,0,0-2.9,4c0,1.54,1.94,10.81,1.94,10.81l-7,16.54,4.47.44,4.61,2.52,7.92-7.82-5.06-5.71S387.81,325.52,387.63,323.24Z"/><polygon class="cls-22" points="394.88 338.36 387.18 332.65 379.78 345.01 387.86 352.52 394.88 338.36"/><path class="cls-22" d="M440.58,425s-2.74.68-3.93-3.18c-.26-.83,1.15-2.57.86-3.83-.2-.91-1.13-1.53-1.44-2.68-.63-2.39.36-5.35.27-5.89-.52-3-2.61-5.33-3.14-10.2-1.5-13.57,2.39-46.27,2.39-46.27l17.61-8.93s30,60.13,17.61,77.43C466.38,427.68,440.58,425,440.58,425Z"/><path class="cls-23" d="M440.82,358.65c1.5,6.5,7,45.5,23.5,74.25a42.76,42.76,0,0,0,21.25-5.25c11.25-6,13.5-4,13.5-4a32.5,32.5,0,0,0-2-6.25c-7-13-32.72-58.52-32.5-60.25.25-2-19.75-5.75-19.75-5.75s-5.75-.5-5.5.25S440.82,358.65,440.82,358.65Z"/><path class="cls-22" d="M440.11,265l-6.88-2.69s-2.93-1.15-5.23,3.12a14.21,14.21,0,0,0-1.82,8.83L437,278.6Z"/><path class="cls-8" d="M380.38,349.36s9.54-16.57,11.81-15.31c8.22,4.58,19.39,22.18,22.25,21.67,1-.18,6.1-3.18,7-3.56,2.35-1,6.21-6,8.67-6.61,6.15-1.49,12.15-2.23,12.15-2.23s-1.67,35.9-4.22,49.59c-2.13,11.45-10.51,33.34-13.39,44.63a38.81,38.81,0,0,0,.14,19.85s-4.39-1.22-5.1-4c-2.77-10.87-1.08-32.91-.8-44.88.19-8.24,4.11-30.55,3-32.24,0,0-14.15.94-18.8-1.55S380.38,349.36,380.38,349.36Z"/><path class="cls-24" d="M444.77,332.16c3.68-4.48,17.87-8.88,20.34-14.13,1.53-3.26-5.4-19.67-6.19-23.18-.33-1.44-24.12-13.44-24.12-13.44s-.82-3.8.86-10c2.56-9.44,9.19-8.53,9.19-8.53s27.61,14.5,29,16.73c3.52,5.7,13.14,36.59,14.09,48.31.28,3.43-1.76,10.2-2,13.64-.48,7.49.69,22.72,2.48,30,3.23,13.14,22.32,42.4,22.32,42.4s-2.16-4.34-12.66,3.53c-15.79,11.84-31.7,10.28-31.7,10.28S451.81,397,449,386.47c-2.59-9.71-7.1-34.19-7.1-34.19S441.08,336.66,444.77,332.16Z"/><path class="cls-5" d="M441.81,342.52l-5-1-5,10,5,4.33-5,10.64,7.38,19.08s2.33-17,2.67-22.67C442.11,357.83,441.81,342.52,441.81,342.52Z"/><path class="cls-21" d="M455,326.7c0-3.17-7.57-6.11-9-9-.65-1.34.7-5.46-.72-5.92-4.66-1.54-17.12,13.68-17.48,18.49-.31,4.22,16.86,17,16.86,17S455,332.88,455,326.7Z"/><path class="cls-25" d="M448.71,340.46s-8.19-17.5-10.91-12.26c-3.92,7.55-1.64-2-1.07-4,.22-.77,1.37-4.11,3.07-5.82a13.6,13.6,0,0,1,5.59-3.24l11.88,16Z"/><path class="cls-17" d="M457.71,325.83c0-.14,0-.43,0-.58-.31-5-1.39-15.23-2.71-20.08-1.88-6.94-6.84-16.72-16.13-18.11-8.83-1.32-17.85,3.27-22.71,7.53-7.06,6.19-7.33,13.72-6.24,16.36.4,1,.19,3.39,5.19,3.39,11.47,0,38.69,4.63,38.69,16.09"/><path class="cls-21" d="M423.61,299.08c2.81-.14,4,5.57,5.86,7.66,1.14,1.26,4.44,3.83,6.13,3.76,2.16-.09,1.25-6.16,4.81-7.13,1.56-.42,4.25,1.28,4.5,3.59a10,10,0,0,1-4.26,9.6c-.43.26-.95-.27-1.35,0-1.51,1.13.14,4.07-2.84,7.19-3.16,3.32-5.34,15.25-9.81,14.22-1.09-.25-2.54.56-3.56-2.33-.65-1.86,0-2.37-.54-3-.76-.83-1.19-.74-1.91-1.52-.11-.12-.18-.7-.3-.86-.76-1-1.22-3.11-2-4s-3.08-1.34-3.47-2.31c-.54-1.36.91-5,.83-6.45-.12-2.08-2.4-5.1-2-7.15C414.38,306.39,419.6,299.28,423.61,299.08Z"/><g class="cls-16"><path class="cls-26" d="M420,324.22c-1.14.5-1.88.39-2-.12-.05-.22,2.05-1.49,2.74-1.13S420.57,324,420,324.22Z"/></g><path class="cls-25" d="M424.26,337.41c.94,1.85,9.22.46,10.69-1,1.3-1.3,5.78-5.87,5.43-17.07,0-.47-1.11-.57-.38-3.25.13-.49,0-.57-.42-.3-2.14,1.32-.41,3.59-1.42,8.34-2,9.28-8.13,9.22-10.71,10.85C426.2,335.75,423.59,336.1,424.26,337.41Z"/><path class="cls-25" d="M438.28,309c-.36,1,1.86,1.9,1.89,2.72,0,1.17-1.89,2.1-1.13,2.38,1.29.48,3-1,3.91-3.35s.53-4.62-.76-5.1S439.15,306.7,438.28,309Z"/><path class="cls-25" d="M426.7,308c-.9-1-2.77-.87-3.92-.53-1.72.5-3.3,1.07-4,3-.62,1.69-1.13,3.07-.47,3.56,2.15,1.59,5.1.18,6.62,0C425.44,313.86,429.15,310.59,426.7,308Z"/><path class="cls-27" d="M420.15,312.89c1.34-2.59,4.06-1.43,5-.75.41.29.35,1.89-2.68,2.93C421.12,315.55,419.65,313.85,420.15,312.89Z"/><path class="cls-26" d="M420.45,314.46a1.11,1.11,0,0,0,1.6.53,1.51,1.51,0,0,0,.23-1.9,1.11,1.11,0,0,0-1.6-.54A1.51,1.51,0,0,0,420.45,314.46Z"/><path class="cls-21" d="M425.69,312.76l.13,0c0-.54.25-.68-.75-1.34-1.25-.83-3.3-1.82-5.05.52-.73,1-.43,2.4.41,2.64.14,0-.67-1.24.07-1.66,2.3-1.32,3.62-.36,4.68-.18h0a8.15,8.15,0,0,0-3.18,3c-.31.59.52,1.1.88.61a.45.45,0,0,0,.31-.16l.52-.63a13.14,13.14,0,0,1,1.54-1.12.55.55,0,0,0,.21-.62c.09-.06.17-.14.26-.19A.54.54,0,0,0,425.69,312.76Z"/><path class="cls-26" d="M418.8,308.52c4.87-5,7.58-1.71,7.58-1.71a9.21,9.21,0,0,0-5.35,2.76c-1.56,1.44-1.79,3.33-2.44,3.66S415.88,311.53,418.8,308.52Z"/><path class="cls-25" d="M422,324.1a2,2,0,0,0,.33-1.58,2.17,2.17,0,0,0-.62-1.09,2.06,2.06,0,0,0-.82-.51c-.24-.06-.72-.06-.57.31.08.21.57.44.75.59a3.06,3.06,0,0,1,.58.65,2.81,2.81,0,0,1,.3,1.5.54.54,0,0,1,0,.12Z"/><polygon class="cls-25" points="430.94 336.31 443.1 348.09 445.66 342.65 433.52 334.94 430.94 336.31"/><path class="cls-28" d="M457.28,321.75l5.22-.54-3.66,14.91-6.67,2.93,6.4,1.68-10.36,25.65-2.31,6.4s-3.69-13.07-3.9-19.14c-.14-4,2.13-8.74,4.33-13.83C452.16,326.31,457.28,321.75,457.28,321.75Z"/><path class="cls-8" d="M429,545.26c-1.95-.89.17,6.65,1.69,8,2.28,2.06,16.16,4.24,16.16,4.24l-1-6.46S431.57,546.41,429,545.26Z"/><path class="cls-19" d="M536.45,551.52s-5.87,7.88-11.62,9.13c-9.31,2-10.62-3.12-10.62-3.12s4.49,3,9.24,1.5C528.41,557.41,533.64,554.64,536.45,551.52Z"/><path class="cls-19" d="M428.24,545.19c-.3,2.58,1.35,2.59,9.32,4.59,7.29,1.83,11.4,1.29,11.4,1.29s-14.87-3.81-19.14-7C429.43,543.75,428.3,544.7,428.24,545.19Z"/><polygon class="cls-29" points="469.14 393.02 469.14 398.18 491.73 400.76 491.73 396.89 469.14 393.02"/><path class="cls-21" d="M417.4,250.68c-.6-1.25-2.23-2.3-3.35-3-1.45-.91-3.53-1.35-4.26.65a1.56,1.56,0,0,0-.09.42,1.37,1.37,0,0,0-.08,1,5.14,5.14,0,0,0,.47,1.05,4.19,4.19,0,0,0-1.11-.44,1.12,1.12,0,0,0-.58-.09h-.33a1.56,1.56,0,0,0-1.11.54,1.65,1.65,0,0,0-.71,1.54s0,0,0,0a1.54,1.54,0,0,0-.05.77,3.86,3.86,0,0,0,.83,1.7,3.19,3.19,0,0,0-3.14-.39,1.46,1.46,0,0,0-.51.39,1.83,1.83,0,0,0-.68,2,4.86,4.86,0,0,0,1.3,2.33,7.77,7.77,0,0,0,3.53,2.56c1.75.86,4.09,1,4.36-1.51a2.71,2.71,0,0,0-.52-1.7,3.15,3.15,0,0,0,1.37.31,3.05,3.05,0,0,0,2.59-1.92,2.42,2.42,0,0,0-.61-2.64A2.58,2.58,0,0,0,417.4,250.68Z"/><path class="cls-21" d="M408,264.83c-.34-1.68-3-3.39-4.16-4.11s-2.14-1.19-3.38-.6c-1.49.71-.94,2.65-.37,3.75,1.37,2.63,5,5.38,7.66,2.67A1.38,1.38,0,0,0,408,264.83Z"/><path class="cls-25" d="M425.82,326.58c-2,.89-5.75,2.29-6,2.77,0,0,.53,1,.52,1a54.72,54.72,0,0,1,5.81-3.07C426.73,327,426.41,326.33,425.82,326.58Z"/><path class="cls-17" d="M432.66,288.56c-7.08,1-16.58,2.92-21.83,8.75s-2.83,9.75-2.83,9.75,2.08-5.83,6.08-6.75S432.66,288.56,432.66,288.56Z"/><g class="cls-16"><path class="cls-19" d="M426.3,361.21l0-.06Z"/><path class="cls-19" d="M422.57,377.65a73.07,73.07,0,0,1,3.73-16.44c-.37,1-5.73,14-19,14.69h-.19c6,1,14.77.39,14.77.39.33.49.23,2.71-.07,5.81C422.12,380.79,422.37,379.32,422.57,377.65Z"/></g><path class="cls-30" d="M466.37,427.81s15.24.6,31.7-10.28c13.17-8.71,11.83-1.54,11.83-1.54-1,3.54-4.46,7.29-10.71,10.54"/><path class="cls-13" d="M534.82,553c3-4.64-19.83-35.54-29.5-36.21-9.07-.63-19.61-6.83-23.63-13.93.15.48.28.84.37,1,3.76,8.46,24.11,39.52,32.77,51.62.37.51-1,1.54-.62,2C521.76,562.9,532.57,556.52,534.82,553Z"/><path class="cls-31" d="M218.94,569.51a23.63,23.63,0,1,0-24.54,39.88Z"/><path class="cls-26" d="M425.36,311.55c-2,.15-6-.43-6.28,2.47-.06.64.94.64,1,0,.19-1.92,4-1.38,5.28-1.47C426,312.51,426,311.51,425.36,311.55Z"/></g></g></g></svg>