<svg xmlns="http://www.w3.org/2000/svg" viewBox="0 0 800 800"><defs><style>.cls-1{fill:#fff;}.cls-2{fill:#faca0b;}.cls-3{fill:#141414;fill-rule:evenodd;}</style></defs><title>mechanic-yellow</title><g id="Layer_2" data-name="Layer 2"><g id="_1" data-name="1"><rect class="cls-1" width="800" height="800"/><rect class="cls-2" x="9.5" y="9.22" width="781" height="781.56"/><path class="cls-3" d="M225,344.67c-8-.56-20.39,3-24.22,8.55-16.07,23.46,24.71,20.16,36.17,20.68-7.42,6.3-35.75,36-37.44,43.06-1.9,7.88-1.9,70.71-2.08,84.25-.24,18.22-4.25,59.59,9.18,70.07H184.31A6.74,6.74,0,0,0,177.6,578h0a6.74,6.74,0,0,0,6.71,6.72H615.69A6.74,6.74,0,0,0,622.4,578h0a6.74,6.74,0,0,0-6.71-6.72H593.23c17-13.79,7.21-84.32,7.59-109.22.77-45.87-.67-58.82-37.86-88.16,12.16-.56,48.72,3.83,37.05-19.24-3.52-7-25.87-15.69-34.13-6-16.73,19.56-14.94-1.48-30.23-23.5-1.65-3.31-3.16-6.3-4.64-9a21.06,21.06,0,0,1-6,4.79l25.41,49.25c-15.5-.11-31.11-.74-46.79-1.51-7.63,7.91-20.95,12.49-29.7,4.18-1.44-1.27-5.55-3.94-7.73-3.76-2.5,2-7.24,9.92-6.47,13.19a13.22,13.22,0,0,1,.77,3.34c1.16,10.45-8.09,18.89-17.33,21.7-10.54,3.8-24.54,1-28.72-10.55l-.07-.14c-.63-1.93-3.06-6.37-5.17-7.11-3.1.6-10.76,5.17-11.71,8.2-2.71,11.79-16.35,15.9-27,13.47-11.28-2.18-22.18-11.64-19.3-24,.35-2,.42-6.68-.84-8.41-3.2-.92-12.2-1.34-14.17.88-8.08,9.25-22.67,5.38-30.69-2a29.55,29.55,0,0,1-6.43-8.69c-17,.88-33.61,1.44-49.53,1.16,5.1-12.84,11.32-24.48,18.35-37,1.3-2.32,2.46-4.43,3.52-6.4a28.47,28.47,0,0,1-4.64-7.63,336.34,336.34,0,0,0-17.12,30.57c-11.28,22.23-9.25-3.87-24.61-5Zm28.54,226.61c7.35-5.18,5.34-16.15,5.87-28.78,49.46-3.45,231.83-3.45,281.07,0,.53,12.28-1.51,23.5,5.9,28.78Zm44.15-366.44c5.2,4.89,4.6,17.83,3.06,21.81-2.18,3.73-8.93,5.24-16,4-6.79-1.51-14.13,4.92-16,14.77-2.15,9.25,1.58,18.12,8.33,19.66,7.35,1.55,12.58,13.54,12.9,17.55.6,4-4.29,9.22-11.07,11-7,2.5-9.84,12-7,21.21s11,15.09,17.79,12.95c6.43-2.46,13.85-1.23,15.68,2.46,2.14,3.06,4.57,16-.32,21.49-4.29,5.24-2.42,14.74,4.64,21.21s17.19,7.7,21.79,2.46S349,371.51,353,373c3.69,1.55,5.55,8.65,4.29,15.37-1.83,7.39,4.61,14.77,14.45,16.6,9.25,2.14,18.17-1.83,19.69-8.9,1.86-6.75,13.53-12.59,17.5-12.91s9.25,4.89,11.39,11.4c2.46,6.75,11.67,10.09,20.88,6.75,9.21-2.78,15-10.8,12.58-17.24-2.14-7.07,5.55-17.87,8.93-20.3,3.06-2.46,10.16-.32,15.36,4.29,5.2,4.92,14.73,3.09,21.48-4.29,6.19-7.39,7.42-16.92,2.21-21.81s-4-17.83-2.21-21.56c1.58-3.66,8.33-5.52,15.08-4C522,318,529.39,311.25,531.26,302c2.14-9.85-1.86-18.71-9-20.26-6.71-1.27-12.27-13.23-12.9-17.24-.28-4.33,4.92-8.9,11.39-11.4,7.06-2.15,10.16-11.4,7.06-20.58-3.09-9.57-11-15.05-17.5-12.91-6.75,1.83-17.82-5.52-20.28-8.65-2.43-3.66-.28-10.41,4.61-15.65s2.74-15.09-4.61-21.53c-7.1-6.47-16.87-7.67-21.83-2.5-4.61,5.28-17.82,4.68-21.16,2.81-3.73-1.58-5.87-8.94-4.36-15.72,1.86-6.72-5.2-14.14-14.41-16.29-9.49-1.83-18.42,1.83-20.28,8.93-1.23,7.07-13.22,12.63-17.19,12.91-4,0-8.93-4.57-11.39-11.68-2.18-6.75-11.35-9.53-20.6-6.75s-15,10.73-12.9,17.84c1.83,6.75-5.2,17.2-8.93,19.66-3.37,2.5-10.12.6-15.36-4.29-5.2-4.61-15-2.46-21.48,4.29-6.47,7.39-7.73,17.55-2.46,21.84ZM376,199.95h0c40.88-12.95,84.26,9.5,97.16,49.77A77,77,0,1,1,326.6,297.11c-12.94-40.28,9.17-84.32,49.42-97.16ZM323.26,476.3a25.12,25.12,0,0,0,25,25H451.71a25.11,25.11,0,0,0,25-25V459a25.14,25.14,0,0,0-25-25H348.29a25.14,25.14,0,0,0-25,25Zm-31.85.07c5.73-2.71,11.57-9.32,13.67-14.81-15.43-9.11-72.8-13.16-90.41-9.68-7.95,46.68,60.57,32.19,76.74,24.48Zm203.49-14.81c2.11,5.49,7.94,12.1,13.67,14.81,16.17,7.7,84.68,22.2,76.74-24.48-17.61-3.48-75,.56-90.41,9.68Z"/><path class="cls-3" d="M423.38,281.84a2.72,2.72,0,0,0-3.87,0l-2.39,2.36c-3.9-3.94-7.24-7.21-10.48-10.45l11.49-11.54,4.82-4.82a18.4,18.4,0,0,0,24.61-22l-.53-1.83-12.48,12.52-10.41-10.41,12.48-12.52-1.79-.49a18.35,18.35,0,0,0-22,24.59L408,252.08v0l-11.57,11.54c-5.8-5.73-12.79-12.7-23.2-23.11a.11.11,0,0,0,0-.07l-5-8.55a1.09,1.09,0,0,0-.32-.39l-8.44-5.84a1.17,1.17,0,0,0-1.48.14l-3.76,3.76a1.13,1.13,0,0,0-.14,1.48l5.83,8.44a1.9,1.9,0,0,0,.39.35l8.54,5h.07C379,254.89,386.11,262,392.13,268l-11.57,11.54h0l-4.82,4.82a18.37,18.37,0,0,0-24.57,22l.49,1.83,12.51-12.52,10.41,10.41L362.07,318.6l1.83.49a18.37,18.37,0,0,0,22-24.59l4.82-4.86,11.56-11.57c3.41,3.38,6.75,6.68,10.51,10.48l-2.35,2.36a2.71,2.71,0,0,0,0,3.87l26.5,26.52a2.71,2.71,0,0,0,3.86,0l9.07-9.08a2.73,2.73,0,0,0,0-3.87Zm13.53,33.52-20.53-20.54,2.18-2.15,20.49,20.51Zm4.85-4.89L421.27,290l2.14-2.18,20.53,20.54Z"/></g></g></svg>