<svg xmlns="http://www.w3.org/2000/svg" viewBox="0 0 525.86 397.99"><defs><style>.cls-1{fill:#ffc37b;}.cls-2{fill:#474646;}.cls-3{fill:#97c1ff;}.cls-4{fill:#6caaf4;}.cls-5{fill:#ff4c29;}.cls-6{fill:#e3e5e8;}.cls-7{fill:#a9a9aa;}.cls-8{fill:#f22a0f;}.cls-9{fill:#b9b9ba;}.cls-10{fill:#d2f7ff;}.cls-11{fill:#222324;}.cls-12{fill:#b8d7f4;}.cls-13{fill:#033d91;}.cls-14{fill:#fcaf63;}.cls-15{fill:#0258a0;}.cls-16{fill:#fcc383;}.cls-17{fill:#ff9045;}.cls-18{fill:#fff;}.cls-19{fill:#231f20;}.cls-20{font-size:36px;font-family:Minecraftia-Regular, Minecraftia;}</style></defs><title>productivity-8bit</title><g id="Layer_2" data-name="Layer 2"><g id="_1" data-name=" 1"><polygon class="cls-1" points="56.65 206.89 31.31 211.94 26.23 193.88 52.01 187.67 56.65 206.89"/><rect class="cls-2" x="40.1" y="195.88" width="64.32" height="13.15" transform="translate(-69.87 41.18) rotate(-21.75)"/><rect class="cls-2" x="24.97" y="185.55" width="13.14" height="38.73" transform="translate(-73.68 26.27) rotate(-21.75)"/><path class="cls-3" d="M492.82,398H24.52C-25.64,352.64,6.21,268.42,74.38,268.42A74.36,74.36,0,0,1,148.2,351.8a36.9,36.9,0,0,1,25.3,4.33,37.07,37.07,0,0,1,47.43,9A37,37,0,0,1,270,379.62,36,36,0,0,1,320.15,354a57,57,0,0,1,68.31-57.37A74.38,74.38,0,1,1,492.82,398Z"/><path class="cls-4" d="M349.8,398c-16.18-17.48-4.36-59.07,35.21-49.85,30.49-58.81,100.32-27.25,100.32,15A51.69,51.69,0,0,1,471.88,398Z"/><path class="cls-4" d="M292.89,398c8.62-10.51,23.64-17.48,40.74-17.48s32.12,7,40.73,17.48Z"/><path class="cls-3" d="M333.62,351s-100.09-56.8-132.31-148.58L77.89,236.93c1.32,2.48,1.8,2.59,2.26,4.22C90.67,278.54,125,327,149.78,364.28c14.1,21.18,83.61,20.43,107.29,22.6Z"/><path class="cls-5" d="M183.66,158s24,2.61,46.34,34.57l-28.69,9.89Z"/><path class="cls-6" d="M140.27,95,180,209.85l21.33-7.38c-1.66-9.83-5-26.18-8.8-52.67-4.21-29.25-11.35-50.75-20.1-65.92Z"/><path class="cls-7" d="M133,170.36c13.36,23.19,20.84,38.1,25.61,46.86L180,209.85,140.27,95,108.11,106.1C110.62,123.44,118.28,144.75,133,170.36Z"/><path class="cls-5" d="M126,53.69,140.27,95l32.14-11.11C159.05,60.64,142,52.26,126,53.69Z"/><path class="cls-8" d="M108.11,106.1,140.27,95,126,53.69C112.52,62.44,104.27,79.58,108.11,106.1Z"/><path class="cls-5" d="M66.63,195.27s-17.27,16.84-15.16,55.79l28.68-9.91Z"/><path class="cls-9" d="M94.07,107.81c8.72,15.19,15.84,36.7,20,66,3.79,26.5,7.1,42.84,8.74,52.68l-42.68,14.7c-4.76-8.76-12.22-23.68-25.56-46.89C39.86,168.64,32.23,147.31,29.75,130Z"/><path class="cls-5" d="M47.67,77.58,61.91,118.9,29.75,130C25.93,103.44,34.22,86.32,47.67,77.58Z"/><path class="cls-8" d="M94.07,107.81,61.91,118.9,47.67,77.58C63.67,76.17,80.74,84.56,94.07,107.81Z"/><rect class="cls-10" x="210.94" y="321.56" width="17.93" height="12.82" transform="translate(-174.93 333.19) rotate(-56.91)"/><polygon class="cls-2" points="216.4 336.38 211.25 357.58 215.24 360.18 236.26 327.92 226.19 321.36 216.4 336.38"/><rect class="cls-11" x="208.38" y="343.03" width="38.5" height="4.49" transform="translate(-185.92 347.5) rotate(-56.91)"/><rect class="cls-10" x="164.18" y="326.93" width="17.93" height="12.82" transform="translate(-188.86 233.08) rotate(-47.07)"/><polygon class="cls-2" points="168.25 341.03 159.55 361.04 163.04 364.28 189.26 336.09 180.46 327.9 168.25 341.03"/><rect class="cls-11" x="158.54" y="349.47" width="38.5" height="4.49" transform="translate(-200.82 242.33) rotate(-47.07)"/><path class="cls-12" d="M91.58,194.09c2.21-36.13,2.39-39.19-.3-48.58-5-17.27-23.94-14.79-22.83,10.26.7,15.83,1.8,27.29,2.85,35.07Z"/><path class="cls-12" d="M39.51,189.45l37.82-8.84c14.61-3.42,20.61,18.88,5.26,22.47l-37.82,8.85Z"/><path class="cls-13" d="M167.15,211.87s10.21,13.63,2.72,29.79c0,0,14.79,55.07,55,76l-12.5,18.12c-42.14-18.94-55-45.43-72.58-84.21,3.69,18,13.92,52.84,40,72.38l-15.29,15.84c-41.68-27.68-52-67.34-64.7-114.29Z"/><polygon class="cls-12" points="147.23 121.4 167.15 212.16 99.72 225.79 77.89 134.69 147.23 121.4"/><polygon class="cls-12" points="119.44 120.75 90.14 127.09 107.17 139.21 119.44 120.75"/><rect class="cls-14" x="94.44" y="112.8" width="21.63" height="28.47" transform="matrix(0.96, -0.28, 0.28, 0.96, -31.39, 34.6)"/><polygon class="cls-13" points="101.01 140.87 113.46 137.51 118.29 141.29 115.37 150.55 105.9 153.1 98.71 146.56 101.01 140.87"/><polygon class="cls-15" points="105.9 153.1 115.37 150.55 128.8 184.59 123.73 200.47 111.36 189.29 105.9 153.1"/><polygon class="cls-10" points="107.17 139.21 125.14 150.01 128.62 123.11 119.44 120.75 107.17 139.21"/><polygon class="cls-10" points="83.32 132.21 95.79 154.48 107.17 139.21 90.14 127.09 83.32 132.21"/><path class="cls-11" d="M45.24,60.87S34,22.06,84.19,10.49c71.7-16.53,71.88,66,54.74,79.4L63.09,105.42Z"/><path class="cls-16" d="M127.18,64.06c6.18-22.58,25.52,13.45,4.54,19.66,0,0,7.79,30.64-29.25,39.18-31.9,7.34-44.72-30-44.59-39.18,0,0-7.73-14.32-5-24.62l27,4.25,32.19-18L120,65.74Z"/><path class="cls-11" d="M102.41,63.72a14.7,14.7,0,0,0-7,3.15,7.82,7.82,0,0,1,14.68-2.59,15,15,0,0,0-7.67-.56Z"/><path class="cls-11" d="M64.73,72.09a14.87,14.87,0,0,1,7.63-.93,7.82,7.82,0,0,0-13.9,5.37,14.91,14.91,0,0,1,6.27-4.44Z"/><path class="cls-17" d="M85.42,92.89a15.12,15.12,0,0,0,5.7-2.53,6.68,6.68,0,0,1-11.94,2.74,15.15,15.15,0,0,0,6.23-.22Z"/><path class="cls-18" d="M96.12,79.7l16.79-3.87A8.92,8.92,0,0,0,96.12,79.7Z"/><path class="cls-19" d="M97.85,79.31l10.63-2.46a5.46,5.46,0,1,0-10.63,2.46Z"/><path class="cls-18" d="M103.71,74.27a2,2,0,1,0,1.53-2.45,2,2,0,0,0-1.53,2.45Z"/><path class="cls-18" d="M61.41,87.7l16.79-3.87A8.91,8.91,0,0,0,61.41,87.7Z"/><path class="cls-19" d="M63.13,87.3l10.65-2.45A5.47,5.47,0,1,0,63.13,87.3Z"/><path class="cls-18" d="M69,82.27a2,2,0,1,0,1.53-2.45A2.07,2.07,0,0,0,69,82.27Z"/><path class="cls-5" d="M77.89,101.63a11.51,11.51,0,0,0,20.46-2.78l-2.72.37a9.12,9.12,0,0,1-15,2Z"/><path class="cls-11" d="M113.15,9.43S101.51-5.23,66.73,2L77,10.74A51.44,51.44,0,0,0,52.73,12l10.4,6.71s-17.47-1.24-21.37,4.08c7.56,4.42,7.92,9,7.92,9Z"/><polygon class="cls-2" points="114.55 207.36 171.3 184.73 167.15 172.23 109.68 195.15 114.55 207.36"/><rect class="cls-2" x="94.7" y="172.44" width="13.14" height="38.73" transform="translate(-63.87 51.18) rotate(-21.75)"/><path class="cls-10" d="M159.81,180.72c2.21-36.13,2.39-39.19-.3-48.58-5-17.27-23.94-14.79-22.82,10.26.7,15.83,1.8,27.28,2.85,35.07Z"/><path class="cls-1" d="M92.6,197.8c-3.41.82-2.22,6,1.25,5.19l6-1.45c3.44-.83,2.17-6-1.25-5.19Z"/><path class="cls-1" d="M91.34,192.62c-3.42.82-2.22,6,1.25,5.19l6-1.45c3.44-.83,2.17-6-1.25-5.19Z"/><path class="cls-1" d="M90.09,187.42c-3.41.82-2.21,6,1.25,5.19l6-1.45c3.45-.83,2.17-6-1.25-5.19Z"/><path class="cls-1" d="M88.58,182.3c-3.41.82-2.21,6,1.25,5.19l6-1.45c3.45-.83,2.17-6-1.25-5.19Z"/><polygon class="cls-1" points="124.47 193.89 99.87 201.54 94.05 180.98 119.83 174.67 124.47 193.89"/><path class="cls-10" d="M107.73,176.08l37.82-8.84c14.61-3.42,20.61,18.88,5.26,22.47L113,198.55Z"/><path class="cls-1" d="M24,208.21c-3.41.82-2.22,6,1.25,5.19l6-1.45c3.45-.83,2.17-6-1.25-5.19Z"/><path class="cls-1" d="M22.78,203c-3.42.82-2.21,6,1.25,5.19l6-1.45c3.45-.83,2.17-6-1.25-5.19Z"/><path class="cls-1" d="M21.53,197.83c-3.41.83-2.21,6,1.25,5.19l6-1.45c3.45-.83,2.17-6-1.25-5.19Z"/><path class="cls-1" d="M20.28,192.64c-3.42.82-2.22,6,1.25,5.19l6-1.45c3.45-.83,2.17-6-1.25-5.19Z"/><path class="cls-4" d="M85.28,322.41c30.17,0,53,28,47.76,58.55,19.36-2.29,39.75,4.1,49.38,17H43.72C24.54,365.34,47.14,322.41,85.28,322.41Z"/><text class="cls-20" transform="translate(237.87 79.21)">Productivity <tspan x="0" y="43.2">Level:</tspan><tspan x="0" y="86.4">1,000</tspan></text></g></g></svg>