<svg xmlns="http://www.w3.org/2000/svg" viewBox="0 0 526.4 358.89"><defs><style>.cls-1{fill:#ffc37b;}.cls-2{fill:#474646;}.cls-3{fill:#97c1ff;}.cls-4{fill:#6caaf4;}.cls-5{fill:#ff4c29;}.cls-6{fill:#e3e5e8;}.cls-7{fill:#a9a9aa;}.cls-8{fill:#f22a0f;}.cls-9{fill:#b9b9ba;}.cls-10{fill:#d2f7ff;}.cls-11{fill:#222324;}.cls-12{fill:#b8d7f4;}.cls-13{fill:#033d91;}.cls-14{fill:#fcaf63;}.cls-15{fill:#0258a0;}.cls-16{fill:#fcc383;}.cls-17{fill:#ff9045;}.cls-18{fill:#fff;}.cls-19{fill:#231f20;}.cls-20{font-size:44px;font-family:Silom, Silom;}</style></defs><title>rocket-man_1</title><g id="Layer_2" data-name="Layer 2"><g id="_1" data-name=" 1"><polygon class="cls-1" points="53.78 186.57 29.73 191.12 24.9 174.84 49.38 169.23 53.78 186.57"/><polygon class="cls-2" points="42.55 198.81 99.27 177.32 94.64 166.31 37.93 187.8 42.55 198.81"/><polygon class="cls-2" points="17.34 170.76 30.96 203.2 42.55 198.81 28.93 166.37 17.34 170.76"/><path class="cls-3" d="M467.87,358.89H23.28C-24.34,318,5.89,242.05,70.62,242.05c42,0,75.21,34.83,70.08,75.18a36.62,36.62,0,0,1,24,3.9c15.27-8.39,34.41-4.54,45,8.1,16.53-8.11,37.13-2.57,46.58,13.09,4.32-20.51,27.75-31.71,47.61-23.09-.93-33.07,30.74-58.29,64.85-51.73,12.49-18.89,34.61-31.45,59.82-31.45,39,0,70.61,30,70.61,67.07C499.23,326.38,486.78,346.86,467.87,358.89Z"/><path class="cls-4" d="M332.09,358.89c-15.36-15.76-4.14-53.27,33.42-44.95,28.95-53,95.24-24.58,95.24,13.52A45.34,45.34,0,0,1,448,358.89Z"/><path class="cls-4" d="M278.06,358.89c8.18-9.48,22.44-15.76,38.67-15.76s30.49,6.28,38.67,15.76Z"/><path class="cls-3" d="M316.73,316.56s-95-51.22-125.61-134L73.95,213.66c1.25,2.23,1.71,2.33,2.14,3.81,10,33.71,42.56,77.45,66.1,111,13.39,19.1,79.37,18.42,101.85,20.38Z"/><path class="cls-5" d="M174.36,142.49s22.76,2.35,44,31.17l-27.24,8.92Z"/><path class="cls-6" d="M133.16,85.65l37.71,103.58,20.25-6.65c-1.57-8.87-4.73-23.6-8.36-47.5-4-26.38-10.78-45.76-19.08-59.45Z"/><path class="cls-7" d="M126.3,153.63C139,174.54,146.08,188,150.62,195.88l20.25-6.65L133.16,85.65l-30.53,10C105,111.31,112.29,130.53,126.3,153.63Z"/><path class="cls-5" d="M119.61,48.41l13.56,37.24,30.51-10C151,54.68,134.78,47.13,119.61,48.41Z"/><path class="cls-8" d="M102.64,95.68l30.53-10L119.61,48.41C106.83,56.31,99,71.76,102.64,95.68Z"/><path class="cls-5" d="M63.25,176.09S46.86,191.27,48.86,226.4l27.23-8.94Z"/><path class="cls-9" d="M89.31,97.22c8.28,13.7,15,33.09,19,59.48,3.6,23.9,6.74,38.64,8.3,47.51L76.09,217.46c-4.52-7.9-11.61-21.35-24.26-42.29-14-23.11-21.23-42.33-23.58-58Z"/><path class="cls-5" d="M45.26,70l13.51,37.25-30.53,10C24.62,93.28,32.48,77.84,45.26,70Z"/><path class="cls-8" d="M89.31,97.22l-30.54,10L45.26,70C60.45,68.69,76.66,76.26,89.31,97.22Z"/><polygon class="cls-10" points="199.02 299.37 209.22 305.68 218.52 292.13 208.32 285.82 199.02 299.37"/><polygon class="cls-2" points="205.44 303.34 200.55 322.45 204.34 324.8 224.3 295.71 214.73 289.79 205.44 303.34"/><polygon class="cls-11" points="207.91 327.01 227.87 297.92 224.3 295.71 204.34 324.8 207.91 327.01"/><polygon class="cls-10" points="154.12 302.58 163.04 310.46 174.63 298.62 165.72 290.74 154.12 302.58"/><polygon class="cls-2" points="159.72 307.53 151.47 325.57 154.78 328.5 179.68 303.07 171.32 295.69 159.72 307.53"/><polygon class="cls-11" points="157.9 331.25 182.8 305.83 179.68 303.07 154.78 328.5 157.9 331.25"/><path class="cls-12" d="M86.95,175c2.1-32.58,2.27-35.34-.28-43.81-4.72-15.58-22.73-13.34-21.67,9.25.67,14.27,1.71,24.61,2.71,31.63Z"/><path class="cls-12" d="M37.51,170.84l35.91-8c13.87-3.08,19.57,17,5,20.26l-35.91,8Z"/><path class="cls-13" d="M158.68,191.06s9.7,12.29,2.58,26.86c0,0,14,49.66,52.18,68.53l-11.87,16.34c-40-17.08-52.18-41-68.9-75.94,3.5,16.26,13.22,47.65,37.93,65.27l-14.52,14.29c-39.57-25-49.36-60.72-61.42-103.06Z"/><polygon class="cls-12" points="139.77 109.47 158.68 191.32 94.67 203.61 73.95 121.46 139.77 109.47"/><polygon class="cls-12" points="113.39 108.88 85.58 114.6 101.74 125.53 113.39 108.88"/><polygon class="cls-14" points="93.86 129.62 113.57 124.15 106 99.5 86.29 104.97 93.86 129.62"/><polygon class="cls-13" points="95.89 127.03 107.71 124.01 112.3 127.41 109.53 135.76 100.54 138.06 93.71 132.16 95.89 127.03"/><polygon class="cls-15" points="100.54 138.06 109.53 135.76 122.28 166.46 117.47 180.78 105.72 170.69 100.54 138.06"/><polygon class="cls-10" points="101.74 125.53 118.8 135.28 122.11 111.01 113.39 108.88 101.74 125.53"/><polygon class="cls-10" points="79.11 119.22 90.94 139.3 101.74 125.53 85.58 114.6 79.11 119.22"/><path class="cls-11" d="M43,54.89s-10.68-35,37-45.43c68.07-14.91,68.24,59.48,52,71.6l-72,14Z"/><path class="cls-16" d="M120.74,57.77C126.61,37.4,145,69.9,125.05,75.5c0,0,7.4,27.63-27.77,35.33C67,117.45,54.83,83.82,54.95,75.5c0,0-7.34-12.91-4.73-22.21l25.6,3.84L106.38,40.9l7.52,18.37Z"/><path class="cls-11" d="M97.23,57.46a14.3,14.3,0,0,0-6.66,2.84,7.22,7.22,0,0,1,6.07-6A7.56,7.56,0,0,1,104.51,58a15,15,0,0,0-7.28-.51Z"/><path class="cls-11" d="M61.45,65a14.81,14.81,0,0,1,7.24-.84A7.66,7.66,0,0,0,60.23,62a7,7,0,0,0-4.73,7,14.16,14.16,0,0,1,6-4Z"/><path class="cls-17" d="M81.09,83.77a14.73,14.73,0,0,0,5.41-2.28c-.2,2.18-2.12,4.17-4.82,4.76A6.12,6.12,0,0,1,75.18,84a15.13,15.13,0,0,0,5.92-.2Z"/><path class="cls-18" d="M91.25,71.87l15.94-3.49a8.56,8.56,0,0,0-9.38-4.06,8.1,8.1,0,0,0-6.56,7.55Z"/><path class="cls-19" d="M92.89,71.52,103,69.3a5.46,5.46,0,0,0-6.24-3.83,5.17,5.17,0,0,0-3.85,6Z"/><path class="cls-18" d="M98.45,67a1.94,1.94,0,0,0,2.32,1.38,1.84,1.84,0,0,0,1.46-2.2,2,2,0,0,0-2.33-1.38A1.85,1.85,0,0,0,98.45,67Z"/><path class="cls-18" d="M58.3,79.09,74.24,75.6a8.56,8.56,0,0,0-9.37-4.08,8.1,8.1,0,0,0-6.57,7.57Z"/><path class="cls-19" d="M59.94,78.73,70,76.52a5.48,5.48,0,0,0-6.25-3.84,5.18,5.18,0,0,0-3.86,6.05Z"/><path class="cls-18" d="M65.5,74.19a1.94,1.94,0,0,0,2.33,1.37,1.82,1.82,0,0,0,1.45-2.2A1.94,1.94,0,0,0,67,72a1.86,1.86,0,0,0-1.45,2.21Z"/><path class="cls-5" d="M73.95,91.65a11.16,11.16,0,0,0,10.53,4.47,10.8,10.8,0,0,0,8.89-7l-2.58.33A8.62,8.62,0,0,1,84.17,94a8.94,8.94,0,0,1-7.65-2.69Z"/><path class="cls-11" d="M107.43,8.51S96.37-4.72,63.35,1.81l9.78,7.87a51.33,51.33,0,0,0-23.07,1.13l9.87,6s-16.58-1.12-20.29,3.68c7.18,4,7.52,8.07,7.52,8.07Z"/><polygon class="cls-2" points="108.75 186.99 162.62 166.58 158.68 155.31 104.13 175.98 108.75 186.99"/><polygon class="cls-2" points="83.54 158.94 97.16 191.38 108.75 186.99 95.13 154.55 83.54 158.94"/><path class="cls-10" d="M151.72,163c2.1-32.58,2.27-35.34-.28-43.81-4.72-15.57-22.73-13.34-21.67,9.25.67,14.27,1.71,24.6,2.7,31.63Z"/><path class="cls-1" d="M87.91,178.37a2.42,2.42,0,1,0,1.19,4.68l5.72-1.31c3.27-.75,2.06-5.42-1.19-4.68Z"/><path class="cls-1" d="M86.72,173.69a2.42,2.42,0,1,0,1.19,4.68l5.72-1.31c3.27-.75,2.06-5.42-1.19-4.68Z"/><path class="cls-1" d="M85.53,169a2.42,2.42,0,1,0,1.19,4.68l5.72-1.31c3.27-.75,2.06-5.42-1.19-4.68Z"/><path class="cls-1" d="M84.09,164.39a2.42,2.42,0,1,0,1.19,4.68L91,167.76c3.27-.75,2.06-5.42-1.19-4.68Z"/><polygon class="cls-1" points="118.17 174.85 94.82 181.74 89.29 163.2 113.77 157.51 118.17 174.85"/><path class="cls-10" d="M102.28,158.78l35.91-8c13.87-3.08,19.57,17,5,20.27l-35.91,8Z"/><path class="cls-1" d="M22.82,187.75A2.42,2.42,0,1,0,24,192.43l5.72-1.31c3.27-.75,2.06-5.42-1.19-4.68Z"/><path class="cls-1" d="M21.63,183.07a2.42,2.42,0,1,0,1.19,4.68l5.72-1.31c3.27-.75,2.06-5.42-1.19-4.68Z"/><path class="cls-1" d="M20.44,178.39a2.42,2.42,0,1,0,1.19,4.68l5.72-1.31c3.27-.75,2.06-5.42-1.19-4.68Z"/><path class="cls-1" d="M19.25,173.71a2.42,2.42,0,1,0,1.19,4.68l5.72-1.31c3.27-.75,2.06-5.42-1.19-4.68Z"/><path class="cls-4" d="M81,290.74c28.64,0,50.3,25.28,45.34,52.8,18.38-2.06,37.74,3.7,46.88,15.36H41.51C23.29,329.45,44.76,290.74,81,290.74Z"/><text class="cls-20" transform="translate(218.36 89.41)">Become a <tspan x="0" y="52.8">productivity </tspan><tspan x="0" y="105.6">master.</tspan></text></g></g></svg>