<svg xmlns="http://www.w3.org/2000/svg" viewBox="0 0 519.67 365.07"><defs><style>.cls-1{fill:#ffc37b;}.cls-2{fill:#474646;}.cls-3{fill:#97c1ff;}.cls-4{fill:#6caaf4;}.cls-5{fill:#ff4c29;}.cls-6{fill:#e3e5e8;}.cls-7{fill:#a9a9aa;}.cls-8{fill:#f22a0f;}.cls-9{fill:#b9b9ba;}.cls-10{fill:#d2f7ff;}.cls-11{fill:#222324;}.cls-12{fill:#b8d7f4;}.cls-13{fill:#033d91;}.cls-14{fill:#fcaf63;}.cls-15{fill:#0258a0;}.cls-16{fill:#fcc383;}.cls-17{fill:#ff9045;}.cls-18{fill:#fff;}.cls-19{fill:#231f20;}.cls-20{font-size:44px;font-family:Silom, Silom;}</style></defs><title>rocket-man-productive-level</title><g id="Layer_2" data-name="Layer 2"><g id="_1" data-name=" 1"><polygon class="cls-1" points="53.78 192.75 29.73 197.3 24.9 181.02 49.38 175.41 53.78 192.75"/><polygon class="cls-2" points="42.55 205 99.27 183.51 94.64 172.5 37.93 193.99 42.55 205"/><polygon class="cls-2" points="17.34 176.94 30.96 209.39 42.55 205 28.93 172.55 17.34 176.94"/><path class="cls-3" d="M467.87,365.07H23.28C-24.34,324.18,5.89,248.23,70.62,248.23c42,0,75.21,34.83,70.08,75.18a36.62,36.62,0,0,1,24,3.9c15.27-8.39,34.41-4.54,45,8.1,16.53-8.11,37.13-2.57,46.58,13.09,4.32-20.51,27.75-31.71,47.61-23.09-.93-33.07,30.74-58.29,64.85-51.73,12.49-18.89,34.61-31.45,59.82-31.45,39,0,70.61,30,70.61,67.07C499.23,332.56,486.78,353,467.87,365.07Z"/><path class="cls-4" d="M332.09,365.07c-15.36-15.76-4.14-53.27,33.42-44.95,28.95-53,95.24-24.58,95.24,13.52A45.34,45.34,0,0,1,448,365.07Z"/><path class="cls-4" d="M278.06,365.07c8.18-9.48,22.44-15.76,38.67-15.76s30.49,6.28,38.67,15.76Z"/><path class="cls-3" d="M316.73,322.74s-95-51.22-125.61-134L73.95,219.84c1.25,2.23,1.71,2.33,2.14,3.81,10,33.71,42.56,77.45,66.1,111,13.39,19.1,79.37,18.42,101.85,20.38Z"/><path class="cls-5" d="M174.36,148.67s22.76,2.35,44,31.17l-27.24,8.92Z"/><path class="cls-6" d="M133.16,91.83l37.71,103.58,20.25-6.65c-1.57-8.87-4.73-23.6-8.36-47.5-4-26.38-10.78-45.76-19.08-59.45Z"/><path class="cls-7" d="M126.3,159.81c12.69,20.92,19.78,34.36,24.31,42.26l20.25-6.65L133.16,91.83l-30.53,10C105,117.5,112.29,136.72,126.3,159.81Z"/><path class="cls-5" d="M119.61,54.59l13.56,37.24,30.51-10C151,60.86,134.78,53.31,119.61,54.59Z"/><path class="cls-8" d="M102.64,101.86l30.53-10L119.61,54.59C106.83,62.49,99,77.94,102.64,101.86Z"/><path class="cls-5" d="M63.25,182.27s-16.39,15.19-14.39,50.31l27.23-8.94Z"/><path class="cls-9" d="M89.31,103.4c8.28,13.7,15,33.09,19,59.48,3.6,23.9,6.74,38.64,8.3,47.51L76.09,223.64c-4.52-7.9-11.61-21.35-24.26-42.29-14-23.11-21.23-42.33-23.58-58Z"/><path class="cls-5" d="M45.26,76.14,58.77,113.4l-30.53,10C24.62,99.46,32.48,84,45.26,76.14Z"/><path class="cls-8" d="M89.31,103.4l-30.54,10L45.26,76.14C60.45,74.87,76.66,82.44,89.31,103.4Z"/><polygon class="cls-10" points="199.02 305.55 209.22 311.86 218.52 298.31 208.32 292 199.02 305.55"/><polygon class="cls-2" points="205.44 309.52 200.55 328.63 204.34 330.98 224.3 301.89 214.73 295.97 205.44 309.52"/><polygon class="cls-11" points="207.91 333.19 227.87 304.1 224.3 301.89 204.34 330.98 207.91 333.19"/><polygon class="cls-10" points="154.12 308.76 163.04 316.64 174.63 304.8 165.72 296.92 154.12 308.76"/><polygon class="cls-2" points="159.72 313.71 151.47 331.75 154.78 334.68 179.68 309.26 171.32 301.87 159.72 313.71"/><polygon class="cls-11" points="157.9 337.43 182.8 312.01 179.68 309.26 154.78 334.68 157.9 337.43"/><path class="cls-12" d="M86.95,181.2c2.1-32.58,2.27-35.34-.28-43.81-4.72-15.58-22.73-13.34-21.67,9.25.67,14.27,1.71,24.61,2.71,31.63Z"/><path class="cls-12" d="M37.51,177l35.91-8c13.87-3.08,19.57,17,5,20.26l-35.91,8Z"/><path class="cls-13" d="M158.68,197.24s9.7,12.29,2.58,26.86c0,0,14,49.66,52.18,68.53L201.58,309c-40-17.08-52.18-41-68.9-75.94,3.5,16.26,13.22,47.65,37.93,65.27l-14.52,14.29c-39.57-25-49.36-60.72-61.42-103.06Z"/><polygon class="cls-12" points="139.77 115.66 158.68 197.5 94.67 209.79 73.95 127.64 139.77 115.66"/><polygon class="cls-12" points="113.39 115.06 85.58 120.78 101.74 131.72 113.39 115.06"/><polygon class="cls-14" points="93.86 135.8 113.57 130.33 106 105.68 86.29 111.16 93.86 135.8"/><polygon class="cls-13" points="95.89 133.21 107.71 130.19 112.3 133.59 109.53 141.94 100.54 144.24 93.71 138.34 95.89 133.21"/><polygon class="cls-15" points="100.54 144.24 109.53 141.94 122.28 172.64 117.47 186.96 105.72 176.87 100.54 144.24"/><polygon class="cls-10" points="101.74 131.72 118.8 141.46 122.11 117.19 113.39 115.06 101.74 131.72"/><polygon class="cls-10" points="79.11 125.4 90.94 145.49 101.74 131.72 85.58 120.78 79.11 125.4"/><path class="cls-11" d="M43,61.07s-10.68-35,37-45.43c68.07-14.91,68.24,59.48,52,71.6l-72,14Z"/><path class="cls-16" d="M120.74,63.95c5.87-20.37,24.23,12.13,4.31,17.73,0,0,7.4,27.63-27.77,35.33C67,123.63,54.83,90,54.95,81.68c0,0-7.34-12.91-4.73-22.21l25.6,3.84,30.56-16.23,7.52,18.37Z"/><path class="cls-11" d="M97.23,63.64a14.3,14.3,0,0,0-6.66,2.84,7.22,7.22,0,0,1,6.07-6,7.56,7.56,0,0,1,7.87,3.68,15,15,0,0,0-7.28-.51Z"/><path class="cls-11" d="M61.45,71.19a14.81,14.81,0,0,1,7.24-.84,7.66,7.66,0,0,0-8.46-2.16,7,7,0,0,0-4.73,7,14.16,14.16,0,0,1,6-4Z"/><path class="cls-17" d="M81.09,89.95a14.73,14.73,0,0,0,5.41-2.28c-.2,2.18-2.12,4.17-4.82,4.76a6.12,6.12,0,0,1-6.51-2.29,15.13,15.13,0,0,0,5.92-.2Z"/><path class="cls-18" d="M91.25,78l15.94-3.49a8.56,8.56,0,0,0-9.38-4.06A8.1,8.1,0,0,0,91.25,78Z"/><path class="cls-19" d="M92.89,77.7,103,75.48a5.46,5.46,0,0,0-6.24-3.83,5.17,5.17,0,0,0-3.85,6Z"/><path class="cls-18" d="M98.45,73.16a1.94,1.94,0,0,0,2.32,1.38,1.84,1.84,0,0,0,1.46-2.2A2,2,0,0,0,99.91,71a1.85,1.85,0,0,0-1.45,2.21Z"/><path class="cls-18" d="M58.3,85.27l15.94-3.49a8.56,8.56,0,0,0-9.37-4.08,8.1,8.1,0,0,0-6.57,7.57Z"/><path class="cls-19" d="M59.94,84.91,70,82.7a5.48,5.48,0,0,0-6.25-3.84,5.18,5.18,0,0,0-3.86,6.05Z"/><path class="cls-18" d="M65.5,80.37a1.94,1.94,0,0,0,2.33,1.37,1.82,1.82,0,0,0,1.45-2.2A1.94,1.94,0,0,0,67,78.16a1.86,1.86,0,0,0-1.45,2.21Z"/><path class="cls-5" d="M73.95,97.83a11.16,11.16,0,0,0,10.53,4.47,10.8,10.8,0,0,0,8.89-7l-2.58.33a8.62,8.62,0,0,1-6.61,4.54,8.94,8.94,0,0,1-7.65-2.69Z"/><path class="cls-11" d="M107.43,14.69S96.37,1.46,63.35,8l9.78,7.87A51.33,51.33,0,0,0,50.06,17l9.87,6s-16.58-1.12-20.29,3.68c7.18,4,7.52,8.07,7.52,8.07Z"/><polygon class="cls-2" points="108.75 193.17 162.62 172.76 158.68 161.49 104.13 182.16 108.75 193.17"/><polygon class="cls-2" points="83.54 165.12 97.16 197.57 108.75 193.17 95.13 160.73 83.54 165.12"/><path class="cls-10" d="M151.72,169.15c2.1-32.58,2.27-35.34-.28-43.81-4.72-15.57-22.73-13.34-21.67,9.25.67,14.27,1.71,24.6,2.7,31.63Z"/><path class="cls-1" d="M87.91,184.55a2.42,2.42,0,1,0,1.19,4.68l5.72-1.31c3.27-.75,2.06-5.42-1.19-4.68Z"/><path class="cls-1" d="M86.72,179.88a2.42,2.42,0,1,0,1.19,4.68l5.72-1.31c3.27-.75,2.06-5.42-1.19-4.68Z"/><path class="cls-1" d="M85.53,175.19a2.42,2.42,0,1,0,1.19,4.68l5.72-1.31c3.27-.75,2.06-5.42-1.19-4.68Z"/><path class="cls-1" d="M84.09,170.57a2.42,2.42,0,1,0,1.19,4.68L91,173.94c3.27-.75,2.06-5.42-1.19-4.68Z"/><polygon class="cls-1" points="118.17 181.03 94.82 187.92 89.29 169.38 113.77 163.69 118.17 181.03"/><path class="cls-10" d="M102.28,165l35.91-8c13.87-3.08,19.57,17,5,20.27l-35.91,8Z"/><path class="cls-1" d="M22.82,193.93A2.42,2.42,0,1,0,24,198.61l5.72-1.31c3.27-.75,2.06-5.42-1.19-4.68Z"/><path class="cls-1" d="M21.63,189.26a2.42,2.42,0,1,0,1.19,4.68l5.72-1.31c3.27-.75,2.06-5.42-1.19-4.68Z"/><path class="cls-1" d="M20.44,184.57a2.42,2.42,0,1,0,1.19,4.68l5.72-1.31c3.27-.75,2.06-5.42-1.19-4.68Z"/><path class="cls-1" d="M19.25,179.89a2.42,2.42,0,1,0,1.19,4.68l5.72-1.31c3.27-.75,2.06-5.42-1.19-4.68Z"/><path class="cls-4" d="M81,296.92c28.64,0,50.3,25.28,45.34,52.8,18.38-2.06,37.74,3.7,46.88,15.36H41.51C23.29,335.63,44.76,296.92,81,296.92Z"/><text class="cls-20" transform="translate(218.52 55.79)">Productive<tspan x="0" y="52.8">level </tspan><tspan x="0" y="105.6">1,000.</tspan></text></g></g></svg>