<svg xmlns="http://www.w3.org/2000/svg" xmlns:xlink="http://www.w3.org/1999/xlink" viewBox="0 0 792.18 456.5"><defs><style>.cls-1{fill:#3e3d40;}.cls-2{fill:#eceded;}.cls-3{fill:#81858a;}.cls-4{fill:#87888a;}.cls-5{fill:#b1b3b4;}.cls-6{fill:#d0d6db;}</style></defs><title>rocket-man-laptop</title><g id="Layer_2" data-name="Layer 2"><g id="Ebene_1" data-name="Ebene 1"><path class="cls-1" d="M678.84,0H114.35c-7.83,0-14.23,6.87-14.23,15.26V418.83H693.06V15.26C693.06,6.87,686.65,0,678.84,0Z"/><rect class="cls-2" x="126.5" y="26.29" width="540.78" height="372.74"/><polygon class="cls-3" points="756.6 456.5 35.58 456.5 0 442.5 792.18 442.5 756.6 456.5"/><path class="cls-4" d="M398.56,15.75a2.52,2.52,0,1,1-5,0,2.53,2.53,0,1,1,5,0Z"/><rect class="cls-5" x="331.66" y="418.76" width="128.38" height="13.99"/><path class="cls-6" d="M449.85,418.76v5.08a6.18,6.18,0,0,1-5.93,6.37H347.86a6.18,6.18,0,0,1-5.92-6.37v-5.08H0V442.5H792.18V418.76Z"/><image width="2048" height="1215" transform="translate(126.5 22.5) scale(0.26 0.31)" xlink:href="../Desktop/yourtime-screenshot.jpg"/></g></g></svg>