<svg xmlns="http://www.w3.org/2000/svg" viewBox="0 0 217.89 768.27"><defs><style>.cls-1,.cls-4{fill:#575772;}.cls-1{opacity:0.45;}.cls-2{fill:#ff885f;}.cls-3{fill:#7d7c9b;}.cls-5{fill:#a3c4c6;}.cls-6{fill:#d3e0e2;}.cls-7{fill:#edf9f9;}.cls-8{fill:#96a6a8;}.cls-9{fill:#ffd400;}.cls-10{fill:#ffa300;}.cls-11{fill:#e58010;}.cls-12{fill:#fff0a4;}.cls-13{fill:#ffc200;}.cls-14,.cls-35{fill:none;}.cls-15{fill:#ffb37b;}.cls-16{fill:#ffb08d;}.cls-17{fill:#fafbff;}.cls-18{fill:#252533;}.cls-19{fill:#6b2a18;}.cls-20{fill:#843621;}.cls-21{fill:#fcfbfb;}.cls-22{fill:#4d1c14;}.cls-23{fill:#491c15;}.cls-24{fill:#323244;}.cls-25{fill:#131516;}.cls-26{fill:#fff;}.cls-27{fill:#afa2a0;}.cls-28{fill:#e82d2d;}.cls-29{fill:#ff9e5c;}.cls-30{fill:#f9934e;}.cls-31{fill:#fff2bb;}.cls-32{fill:#70350d;}.cls-33{fill:#774320;}.cls-34{opacity:0;}.cls-35{stroke:#e58010;stroke-miterlimit:10;stroke-width:7px;}</style></defs><title>winner</title><g id="Layer_2" data-name="Layer 2"><g id="Layer_1-2" data-name="Layer 1"><path class="cls-1" d="M211.89,756.27h-187a6,6,0,0,0-6,6h0a6,6,0,0,0,6,6h187a6,6,0,0,0,6-6h0A6,6,0,0,0,211.89,756.27Z"/><path class="cls-2" d="M28.92,289.88l-7.71-4.72s12.37-13.52,5.65-19.3c-6.32-5.44-12.5,21.47-12.5,21.47Z"/><path class="cls-3" d="M171,263.72V217.46a14.74,14.74,0,0,0-14.74-14.74h-103a14.74,14.74,0,0,0-14.74,14.74v46.27h-.63A14.32,14.32,0,0,0,23.57,278v5.17H185.94V278a14.32,14.32,0,0,0-14.32-14.32Z"/><path class="cls-4" d="M156.25,202.72h-51.5v83.9l81.18-3.4V278a14.32,14.32,0,0,0-14.32-14.32H171V217.46A14.74,14.74,0,0,0,156.25,202.72Z"/><rect class="cls-4" x="38.52" y="254.74" width="132.48" height="8.99"/><rect class="cls-4" x="23.57" y="283.21" width="162.37" height="8.99"/><rect class="cls-5" x="69.71" y="220.17" width="70.09" height="35.27" rx="4.52" ry="4.52"/><rect class="cls-6" x="69.71" y="216.67" width="70.09" height="35.27" rx="4.52" ry="4.52"/><path class="cls-7" d="M138.59,218.12a4.5,4.5,0,0,0-3.3-1.45h-2.68L97.34,251.94h7.43Z"/><path class="cls-7" d="M72.18,251.42a4.47,4.47,0,0,0,2.06.52H89.67l35.27-35.27h-18Z"/><path class="cls-8" d="M83.23,227.25h43.06a1.77,1.77,0,0,0,0-3.54H83.23a1.77,1.77,0,0,0,0,3.54Z"/><path class="cls-8" d="M90.8,234.49h27.9a1.77,1.77,0,0,0,0-3.54H90.8a1.77,1.77,0,0,0,0,3.54Z"/><path class="cls-8" d="M83.23,244.89h43.06a1.77,1.77,0,0,0,0-3.54H83.23a1.77,1.77,0,0,0,0,3.54Z"/><path class="cls-9" d="M59.9,124.52A51.69,51.69,0,0,1,15.3,73.39V55.89H59.9V40.58H0V73.39a67,67,0,0,0,59.9,66.55Z"/><path class="cls-10" d="M0,56.05V73.39a67,67,0,0,0,59.9,66.55V124.52A51.69,51.69,0,0,1,15.3,73.39V56.05Z"/><path class="cls-11" d="M149.61,124.52A51.69,51.69,0,0,0,194.2,73.39V55.89H149.61V40.58h59.9V73.39a67,67,0,0,1-59.9,66.55Z"/><path class="cls-10" d="M209.51,56.05V73.39a67,67,0,0,1-59.9,66.55V124.52A51.69,51.69,0,0,0,194.2,73.39V56.05Z"/><path class="cls-9" d="M121.32,182.64l-3-20.41h.65a4.86,4.86,0,0,0,0-9.71H90.36a4.86,4.86,0,0,0,0,9.71H91l-3,20.41a19.8,19.8,0,0,0-17.6,19.67v.2h68.56v-.2A19.8,19.8,0,0,0,121.32,182.64Z"/><path class="cls-9" d="M179.43,18.19l-.75,7.29L171,99.81c-.06.55-.13,1.09-.21,1.63s-.11.85-.18,1.26c0,.25-.07.5-.11.74s-.11.68-.18,1-.09.48-.14.71c-.08.51-.2,1-.31,1.53-.16.75-.34,1.5-.52,2.24s-.45,1.68-.71,2.52c-.18.62-.38,1.25-.58,1.85s-.35,1-.54,1.53-.3.81-.44,1.2c-.75,2-1.6,3.86-2.52,5.73-.3.62-.62,1.23-.95,1.84s-.66,1.22-1,1.81l-.17.3c-.71,1.2-1.44,2.36-2.21,3.51a3,3,0,0,1-.18.27c-.37.55-.75,1.09-1.13,1.63s-.88,1.19-1.33,1.77-.91,1.16-1.39,1.73-.95,1.12-1.43,1.67-1,1.09-1.49,1.61-1,1.06-1.54,1.57c-.09.07-.16.16-.23.23L150.1,141c-.52.5-1.08,1-1.64,1.46s-.93.79-1.4,1.19l-.28.23c-.58.45-1.15.91-1.74,1.36l-.3.23-1.49,1.06c-.59.42-1.2.84-1.83,1.25-1.23.81-2.48,1.57-3.76,2.29L136,151l-.25.13c-.65.34-1.32.68-2,1q-2,1-4.08,1.78c-.87.35-1.76.67-2.66,1l-1.32.45-.4.13-.74.21c-.76.23-1.53.46-2.31.67l-.28.08-1,.24c-.64.16-1.29.32-1.94.46q-1.57.33-3.17.6c-.69.11-1.39.21-2.09.31s-1.25.16-1.88.21c-.82.08-1.64.16-2.46.2-1.37.1-2.76.14-4.16.14H104A66.17,66.17,0,0,1,38.3,99.81L30.61,25.48l-.75-7.29.75-.14c2.05-.42,146-.42,148.07,0Z"/><path class="cls-10" d="M179.43,18.18l-.75,7.29L171,99.81c-.06.55-.13,1.09-.21,1.63s-.12.85-.19,1.26c0,.25-.07.49-.11.73s-.11.68-.18,1-.09.48-.14.71c-.09.51-.2,1-.32,1.53-.15.75-.34,1.5-.52,2.23s-.45,1.69-.71,2.52c-.18.63-.38,1.25-.58,1.86s-.35,1-.54,1.53-.29.8-.43,1.2c-.75,2-1.6,3.86-2.52,5.73-.3.63-.63,1.23-.95,1.84s-.67,1.22-1,1.81c-.05.1-.11.2-.17.3-.7,1.2-1.44,2.37-2.2,3.51a2.6,2.6,0,0,1-.19.27c-.37.55-.75,1.09-1.13,1.63s-.88,1.19-1.33,1.77-.91,1.16-1.39,1.72-1,1.12-1.43,1.67-1,1.09-1.48,1.62-1,1.06-1.55,1.57c-.08.07-.15.16-.22.23L150.1,141c-.53.49-1.09,1-1.64,1.46s-.93.79-1.4,1.18l-.28.23c-.58.45-1.15.91-1.74,1.36a3,3,0,0,0-.3.23l-1.49,1.06c-.59.42-1.2.83-1.82,1.24-1.23.81-2.48,1.57-3.77,2.3L136,151l-.25.12c-.65.34-1.32.68-2,1-1.33.64-2.69,1.24-4.08,1.79s-2.89,1.07-4.37,1.56c-1.09.33-2.21.66-3.33,1q-3,.78-6.11,1.29l-2.1.31c-.62.08-1.24.15-1.88.21-.82.08-1.64.16-2.46.2-1.38.1-2.76.14-4.16.14h-.6V17.73c24.8,0,47.84.31,74,.31Z"/><path class="cls-10" d="M121.32,182.64l-3-20.41h.65a4.86,4.86,0,0,0,0-9.71H104.64v50h34.28v-.2A19.8,19.8,0,0,0,121.32,182.64Z"/><polygon class="cls-11" points="119.79 172.44 118.32 162.59 90.96 162.59 89.49 172.44 119.79 172.44"/><path class="cls-12" d="M55,114C48.22,98.63,48,80.35,46,63.83c-.27-2.23-3.81-2.26-3.54,0,2.07,17.21,2.45,36,9.53,52,.92,2.08,4,.28,3.06-1.79Z"/><path class="cls-12" d="M69.72,134.45a67.44,67.44,0,0,1-8.18-9.23c-1.33-1.82-4.4-.06-3.06,1.79a72.32,72.32,0,0,0,8.73,9.95c1.65,1.56,4.16-.93,2.5-2.5Z"/><path class="cls-13" d="M157.58,112.29a66.36,66.36,0,0,1-32.5,32.15c-2.07,1-.27,4,1.79,3.06a69.36,69.36,0,0,0,33.77-33.42c1-2-2.08-3.84-3.06-1.79Z"/><path class="cls-13" d="M163,93a67.33,67.33,0,0,1-1.25,7.18c-.51,2.22,2.9,3.16,3.41.94A76,76,0,0,0,166.49,93c.26-2.26-3.28-2.24-3.54,0Z"/><path class="cls-12" d="M84.69,186.54a22.24,22.24,0,0,0-6.23,4.59c-1.57,1.65.93,4.15,2.5,2.5a19.39,19.39,0,0,1,5.51-4c2-1,.25-4.06-1.79-3.06Z"/><path class="cls-4" d="M25.45,272.29c3.72,1.77,5.84,5.66,4.78,11.5s-7.78,1.77-7.78,1.77Z"/><path class="cls-14" d="M32.5,292.75S19.8,278.14,8.82,281.41l4.55,7.18Z"/><path class="cls-15" d="M31.45,289.75,18.84,285.2s11-15.57,4.48-19.11c-2-1.07-4.36.47-6.72,4.72-3.29,5.92-6.13,9.32-6.84,13.92-.87,5.64,2.12,11.44,6.84,13.56l15.8,4.2Z"/><path class="cls-16" d="M30,301.06,14.66,356.79l24.7.42,5.54-53.06a13.92,13.92,0,0,0-12-15.37l-.71-.06"/><path class="cls-15" d="M44.65,303.39s11-15.8-21.08-20.17c0,0,6.47-8.63.69-12.87-3.72-2.73-11.8,14.51-8.74,17.8A106.81,106.81,0,0,0,32.4,302.49Z"/><path class="cls-2" d="M181,289.88l7.71-4.72s-12.37-13.52-5.65-19.3c6.32-5.44,12.5,21.47,12.5,21.47Z"/><path class="cls-15" d="M178.43,289.75,191,285.2s-11-15.57-4.48-19.11c2-1.07,4.36.47,6.72,4.72,3.29,5.92,6.13,9.32,6.84,13.92.87,5.64-2.12,11.44-6.84,13.56l-15.8,4.2Z"/><path class="cls-16" d="M179.89,301.06l15.33,55.74-24.7.42L165,304.15a13.92,13.92,0,0,1,12-15.37l.71-.06"/><path class="cls-15" d="M165.23,303.39s-11-15.8,21.08-20.17c0,0-6.47-8.63-.69-12.87,3.72-2.73,11.8,14.51,8.74,17.8a106.81,106.81,0,0,1-16.88,14.35Z"/><path class="cls-17" d="M24.49,311l24.14,4.59L50,308.3l-.11-.07a30.29,30.29,0,0,0-22.81-4.75l-1.22.23Z"/><path class="cls-17" d="M184.88,307.75l-23.41,7.48-2.24-7,.1-.08a30.29,30.29,0,0,1,22.07-7.48l1.24.08Z"/><path class="cls-14" d="M129.88,686.23s4.34-18.36-5.8-22.06l-3.25,8.07Z"/><path class="cls-18" d="M158.64,479.07l-32.81-34.69,44.23-53.61A14.07,14.07,0,0,0,173,378.91l-13.59-64.36.14-.13a33.18,33.18,0,0,1,31.94-7.59l.82.24,18.13,68.49a40.59,40.59,0,0,1-5.3,32.65Z"/><path class="cls-19" d="M168.29,729.68H145.74a5.6,5.6,0,0,0-5.6,5.38l.44,19.69a5.6,5.6,0,0,0,5.6,5.82h22.88a5.6,5.6,0,0,0,5.6-5.82l-.77-19.69A5.6,5.6,0,0,0,168.29,729.68Z"/><rect class="cls-19" x="144.16" y="750.44" width="53.93" height="8.84" rx="4.07" ry="4.07"/><path class="cls-19" d="M199,755.31v-1.57a20,20,0,0,0-20-20h-4.77a20,20,0,0,0-20,20v1.57Z"/><path class="cls-20" d="M192.45,744.52c0,5.35-6.81,6-15.21,6s-15.21-.7-15.21-6,6.81-9.68,15.21-9.68S192.45,739.17,192.45,744.52Z"/><path class="cls-21" d="M189,741.63a20,20,0,0,0-3.54-2.22"/><path class="cls-21" d="M190,740.56a23.08,23.08,0,0,0-3.84-2.45,1.55,1.55,0,0,0-2.07.54,1.53,1.53,0,0,0,.54,2.07,19.37,19.37,0,0,1,3.23,2,1.57,1.57,0,0,0,2.14,0,1.52,1.52,0,0,0,0-2.14Z"/><path class="cls-22" d="M140.84,760.58H198A1.13,1.13,0,0,0,199,759.4V756a1.13,1.13,0,0,0-1.09-1.18H140.84a1.13,1.13,0,0,0-1.09,1.18v3.36A1.13,1.13,0,0,0,140.84,760.58Z"/><path class="cls-23" d="M57.45,729.68H80a5.6,5.6,0,0,1,5.6,5.38l-.44,19.69a5.6,5.6,0,0,1-5.6,5.82H56.68a5.6,5.6,0,0,1-5.6-5.82l.77-19.69A5.6,5.6,0,0,1,57.45,729.68Z"/><path class="cls-19" d="M35.2,755.31v-1.57a20,20,0,0,1,20-20H60a20,20,0,0,1,20,20v1.57Z"/><path class="cls-20" d="M41.78,744.52c0,5.35,6.81,6,15.21,6s15.21-.7,15.21-6-6.81-9.68-15.21-9.68S41.78,739.17,41.78,744.52Z"/><path class="cls-21" d="M45.27,741.63a20,20,0,0,1,3.54-2.22"/><path class="cls-21" d="M46.34,742.71a19.37,19.37,0,0,1,3.23-2A1.51,1.51,0,0,0,48,738.11a23.08,23.08,0,0,0-3.84,2.45,1.52,1.52,0,0,0,0,2.14,1.55,1.55,0,0,0,2.14,0Z"/><path class="cls-22" d="M86.31,760.58h-50a1.13,1.13,0,0,1-1.09-1.18V756a1.13,1.13,0,0,1,1.09-1.18h50A1.13,1.13,0,0,1,87.4,756v3.36A1.13,1.13,0,0,1,86.31,760.58Z"/><ellipse class="cls-24" cx="113.18" cy="454.67" rx="39.6" ry="17.62"/><path class="cls-18" d="M90.07,732.71l14.74-168.54h16.52l15.12,168.54,4.29,1.59a41.26,41.26,0,0,0,33.47-2.1l.16-.09L152.92,529.22H73.3L52.51,732.12l.18.08a47.63,47.63,0,0,0,35.2,1.29Z"/><polygon class="cls-25" points="73.31 533.83 152.94 533.83 161.32 608.62 125.86 614.57 121.34 568.78 104.82 568.78 100.4 614.57 65.19 608.31 73.31 533.83"/><path class="cls-18" d="M113.08,435.71c-54.09,0-47.38,33-47.38,33L61.3,597.35l.52.15a186.48,186.48,0,0,0,102.09,0l.52-.15L160,468.85S167.17,435.71,113.08,435.71Z"/><path class="cls-25" d="M111.31,500.39v102a1.77,1.77,0,0,0,3.54,0v-102a1.77,1.77,0,0,0-3.54,0Z"/><polygon class="cls-26" points="89.02 440.67 113.08 511.1 138.76 437.84 89.02 440.67"/><path class="cls-27" d="M137.23,448.45l-.26-.12a55.14,55.14,0,0,0-47.85,0l-.24.12,6.63,19.25,17.54-13,17.54,13Z"/><path class="cls-28" d="M118,496.69l-5,14.42-4.93-14.42s.55-56.26,4-56.26c5.35,0,1.89.24,1.89.24Z"/><path class="cls-28" d="M113,460.71h.08a5.52,5.52,0,0,0,5.3-4l2.75-9.32a5.52,5.52,0,0,0-5.3-7.09h-5.59a5.52,5.52,0,0,0-5.3,7.09l2.75,9.32A5.52,5.52,0,0,0,113,460.71Z"/><path class="cls-26" d="M138.76,437.84l-.26-.12c-15.12-7.29-35.57-7.29-50.69,0l-.23.11,8,22.08,17.54-11.55,17.54,11.55Z"/><polygon class="cls-25" points="113.26 512.29 137.55 440.27 154.98 447.92 144.44 461.99 137.55 464.68 140.45 473.97 113.26 512.29"/><polygon class="cls-25" points="113.26 512.29 88.97 440.27 71.53 446.9 82.07 461.99 88.97 464.68 86.06 473.97 113.26 512.29"/><polygon class="cls-24" points="113.06 511.11 137.35 436.26 154.78 443.91 144.24 457.98 137.35 460.67 140.25 469.96 113.06 511.11"/><polygon class="cls-24" points="113.06 511.11 88.77 436.26 71.33 442.89 81.87 457.98 88.77 460.67 85.86 469.96 113.06 511.11"/><path class="cls-29" d="M71.33,468.85"/><rect class="cls-30" x="100.39" y="407.54" width="24.45" height="40.17" rx="10.87" ry="10.87"/><path class="cls-18" d="M65.19,483.49,10.49,417.33A30.16,30.16,0,0,1,4.3,393.72l14.31-84.39.47-.2a30.66,30.66,0,0,1,32.65,5.76l.15.13L41.11,386.19a18.25,18.25,0,0,0,5.11,16l38,35.52-10.58,10Z"/><polygon class="cls-24" points="84.17 437.73 71.33 442.61 81.87 457.69 84.17 437.73"/><path class="cls-11" d="M179.43,18.19l-.75,7.29H30.61l-.75-7.29.75-.14c2.05-.42,146-.42,148.07,0Z"/><path class="cls-13" d="M180.43,19.11H29a9.55,9.55,0,0,1-9.55-9.55h0A9.55,9.55,0,0,1,29,0H180.43A9.55,9.55,0,0,1,190,9.55h0A9.55,9.55,0,0,1,180.43,19.11Z"/><path class="cls-31" d="M36.73,11.71H31.8a3.57,3.57,0,0,1-3.57-3.57h0A3.57,3.57,0,0,1,31.8,4.57h4.93a3.57,3.57,0,0,1,3.57,3.57h0A3.57,3.57,0,0,1,36.73,11.71Z"/><path class="cls-31" d="M72.83,11.71H48.08a3.57,3.57,0,0,1-3.57-3.57h0a3.57,3.57,0,0,1,3.57-3.57H72.83A3.57,3.57,0,0,1,76.4,8.14h0A3.57,3.57,0,0,1,72.83,11.71Z"/><path class="cls-32" d="M61.41,404s-36.22-60.93,0-77.5c8.54-32.8,53.16-24.52,64.07-21.44s17.37-2.51,17.37-2.51c3.65,3.3,4,10.22,4,10.22l8.43-11c11.18,7,17.39,25,1.71,50.66Z"/><path class="cls-15" d="M119.74,324.15l-29.59,2.4c-19.21,1.56-33.46,19.11-31.84,39.2l.7,8.65a.15.15,0,0,1-.16.17,12.83,12.83,0,0,0-1.84,0l-.35,0c-7.56.61-13.18,7.52-12.53,15.43l0,.29c.64,7.91,7.29,13.82,14.84,13.21l.36,0a12.79,12.79,0,0,0,1.86-.3.15.15,0,0,1,.18.13c2.29,19.29,18.75,33.51,37.41,32l29.74-2.41c19.21-1.56,33.46-19.11,31.84-39.2l-2.91-36C155.84,337.62,139,322.59,119.74,324.15Z"/><path class="cls-32" d="M71.35,385c-1.39-17.12-6.71-38.38,7.44-51.24,7.16-6.51,15.6-7.17,24.56-7.89,7.3-.59,14.59-1.31,21.9-1.77,7.89-.49,6.91-13.07-1-12.7s-16,1.29-24,1.94c-11.4.92-21.74,3.38-30.42,11.77-9.66,9.34-13.73,22.59-12.63,36.16l2,24.72c.66,8.19,12.8,7.21,12.14-1Z"/><ellipse class="cls-25" cx="100.12" cy="378.89" rx="3.32" ry="4.59" transform="translate(-30.25 9.32) rotate(-4.63)"/><ellipse class="cls-25" cx="137.35" cy="375.88" rx="3.32" ry="4.59" transform="translate(-29.89 12.31) rotate(-4.63)"/><path class="cls-33" d="M145.33,360.31c-4.84-5.41-12.41-5.11-16.3,1.15-.88,1.42,1.35,2.72,2.23,1.31,3-4.89,8.54-4.77,12.24-.63,1.11,1.24,2.94-.59,1.83-1.83Z"/><path class="cls-33" d="M94.07,366c3-4.72,8.39-5.48,12.2-1.16,1.1,1.25,2.93-.58,1.83-1.83-4.92-5.59-12.41-4.39-16.26,1.68-.89,1.41,1.34,2.71,2.23,1.31Z"/><path class="cls-32" d="M153.92,313.81S156,333,117.67,336.14s-52.6,2.18-49.75,37.33c0,0-11.79-51,21.32-58.51S135.68,322.86,153.92,313.81Z"/><path class="cls-26" d="M104.08,398.23a16.67,16.67,0,0,0,33.24-2.69Z"/><path class="cls-18" d="M78.23,756.6a5.25,5.25,0,0,0-.57-1.77A1.41,1.41,0,0,1,78.23,756.6Z"/><g class="cls-34"><path class="cls-10" d="M104.35,108.22a33.59,33.59,0,1,1,0-67.17l.37,0,.48.06v67l-.48.06Z"/><path class="cls-10" d="M104.35,41.59h.3v66.06h-.3a33,33,0,1,1,0-66.09m0-1.08a34.13,34.13,0,0,0,0,68.26,3.67,3.67,0,0,0,.44,0l.95-.12v-68l-1-.12a3.67,3.67,0,0,0-.44,0Z"/></g><g class="cls-34"><path class="cls-9" d="M104.11,41.06h.55a33.58,33.58,0,0,1,0,67.15h-.55Z"/><path class="cls-9" d="M104.65,41.61a33,33,0,0,1,0,66.06V41.61m-1.08-1.09v68.25h1.09a34.12,34.12,0,0,0,0-68.23Z"/></g><line class="cls-35" x1="104.53" y1="50.75" x2="104.53" y2="86.91"/><line class="cls-35" x1="115.18" y1="51.47" x2="93.87" y2="51.47"/><line class="cls-35" x1="115.18" y1="86.18" x2="93.87" y2="86.18"/><g id="_52CFjl" data-name="52CFjl"><path class="cls-11" d="M140.89,99.42c-.61-.11-1.21-.25-1.82-.31a21.1,21.1,0,0,0-11.28,1.68,5.92,5.92,0,0,0-3.29,3.51.86.86,0,0,0,.36,1.18,6.26,6.26,0,0,0,3.89,1,15.61,15.61,0,0,0,8.21-3.28c1.43-1,2.72-2.25,4.08-3.38Z"/><path class="cls-11" d="M125.2,109.34c-.93-.61-1.83-1.29-2.8-1.82a17.92,17.92,0,0,0-8-2.43,5.3,5.3,0,0,0-4.18,1.43.81.81,0,0,0-.13,1.17,6.5,6.5,0,0,0,4.27,2.82,18.94,18.94,0,0,0,10.77-.88Z"/><path class="cls-11" d="M145.82,86.17c-1,.27-1.93.43-2.78.73a16.52,16.52,0,0,0-7.84,5,4.75,4.75,0,0,0-1.14,3.34.72.72,0,0,0,.69.77,5.86,5.86,0,0,0,4.42-1,17.87,17.87,0,0,0,6.45-8A6,6,0,0,0,145.82,86.17Z"/><path class="cls-11" d="M127.34,94.61a2,2,0,0,0-.42-.1c-3.53.35-6.47,1.76-8.36,4.87a4.3,4.3,0,0,0-.45,3.28,1.11,1.11,0,0,0,.54.66,3.68,3.68,0,0,0,4-.64,12.53,12.53,0,0,0,3.8-5.49C126.82,96.36,127,95.5,127.34,94.61Z"/><path class="cls-11" d="M135.17,66c-.36,1.13-.75,2.13-1,3.15A15.52,15.52,0,0,0,134,76a5.12,5.12,0,0,0,1.88,3.17.89.89,0,0,0,1.45-.16,5.59,5.59,0,0,0,1.28-3.63,16.1,16.1,0,0,0-3-9A3.68,3.68,0,0,0,135.17,66Z"/><path class="cls-11" d="M133.5,81.78a14.37,14.37,0,0,0-3.09,4.38A13,13,0,0,0,128.88,91a4.68,4.68,0,0,0,.91,3.48.67.67,0,0,0,.94.22,4.88,4.88,0,0,0,2.15-2,11.71,11.71,0,0,0,1.41-6.58c-.06-1.45-.3-2.89-.45-4.33Z"/><path class="cls-11" d="M143.56,75.41c-.75.54-1.45,1-2.09,1.51a16.33,16.33,0,0,0-4,4.74,5.32,5.32,0,0,0-.72,3.93c.28,1.1.54,1.24,1.59.89a5.94,5.94,0,0,0,3.29-3,15.71,15.71,0,0,0,2-7.6A3.41,3.41,0,0,0,143.56,75.41Z"/></g><g id="_52CFjl-2" data-name="52CFjl"><path class="cls-11" d="M68.86,99.42c.61-.11,1.21-.25,1.82-.31A21.1,21.1,0,0,1,82,100.79a5.92,5.92,0,0,1,3.29,3.51.86.86,0,0,1-.36,1.18,6.26,6.26,0,0,1-3.89,1,15.61,15.61,0,0,1-8.21-3.28c-1.43-1-2.72-2.25-4.08-3.38Z"/><path class="cls-11" d="M84.56,109.34c.93-.61,1.83-1.29,2.8-1.82a17.92,17.92,0,0,1,8-2.43,5.3,5.3,0,0,1,4.18,1.43.81.81,0,0,1,.13,1.17,6.5,6.5,0,0,1-4.27,2.82,18.94,18.94,0,0,1-10.77-.88Z"/><path class="cls-11" d="M63.94,86.17c1,.27,1.93.43,2.78.73a16.52,16.52,0,0,1,7.84,5,4.75,4.75,0,0,1,1.14,3.34A.72.72,0,0,1,75,96a5.86,5.86,0,0,1-4.42-1,17.87,17.87,0,0,1-6.45-8A6,6,0,0,1,63.94,86.17Z"/><path class="cls-11" d="M82.41,94.61a2,2,0,0,1,.42-.1c3.53.35,6.47,1.76,8.36,4.87a4.3,4.3,0,0,1,.45,3.28,1.11,1.11,0,0,1-.54.66,3.68,3.68,0,0,1-4-.64,12.53,12.53,0,0,1-3.8-5.49C82.94,96.36,82.71,95.5,82.41,94.61Z"/><path class="cls-11" d="M74.58,66c.36,1.13.75,2.13,1,3.15A15.52,15.52,0,0,1,75.8,76a5.12,5.12,0,0,1-1.88,3.17A.89.89,0,0,1,72.48,79a5.59,5.59,0,0,1-1.28-3.63,16.1,16.1,0,0,1,3-9A3.69,3.69,0,0,1,74.58,66Z"/><path class="cls-11" d="M76.25,81.78a14.37,14.37,0,0,1,3.09,4.38A13,13,0,0,1,80.87,91,4.68,4.68,0,0,1,80,94.46a.67.67,0,0,1-.94.22,4.88,4.88,0,0,1-2.15-2,11.71,11.71,0,0,1-1.41-6.58c.06-1.45.3-2.89.45-4.33Z"/><path class="cls-11" d="M66.19,75.41c.75.54,1.45,1,2.09,1.51a16.33,16.33,0,0,1,4,4.74,5.32,5.32,0,0,1,.72,3.93c-.28,1.1-.54,1.24-1.59.89a5.94,5.94,0,0,1-3.29-3,15.71,15.71,0,0,1-2-7.6A3.42,3.42,0,0,1,66.19,75.41Z"/></g></g></g></svg>